Newsreader6pt-Light.ufo
<glyph name="asterisk" format="2">
  <advance width="886.7733333333333"/>
  <unicode hex="002A"/>
  <outline>
    <contour>
      <point x="596.6266666666667" y="803.0666666666666" type="line"/>
      <point x="511.36" y="1054.3466666666666" type="line"/>
      <point x="775.1466666666668" y="1075.08" type="line"/>
      <point x="771.2800000000001" y="1144.9733333333334" type="line"/>
      <point x="505.37333333333333" y="1141.4666666666667" type="line"/>
      <point x="567.4" y="1398.1200000000001" type="line"/>
      <point x="499.25333333333333" y="1416.72" type="line"/>
      <point x="422.0" y="1162.8133333333333" type="line"/>
      <point x="195.10666666666668" y="1300.3466666666666" type="line"/>
      <point x="157.78666666666666" y="1242.8133333333333" type="line"/>
      <point x="375.06666666666666" y="1089.8" type="line"/>
      <point x="173.65333333333334" y="917.2933333333333" type="line"/>
      <point x="217.33333333333334" y="863.3733333333333" type="line"/>
      <point x="429.48" y="1022.1466666666666" type="line"/>
      <point x="531.6" y="777.36" type="line"/>
    </contour>
  </outline>
</glyph>
<glyph name="plus" format="2">
  <advance width="1140.0"/>
  <unicode hex="002B"/>
  <outline>
    <contour>
      <point x="519.64" y="933.08" type="line"/>
      <point x="519.64" y="94.28" type="line"/>
      <point x="620.36" y="94.28" type="line"/>
      <point x="620.36" y="933.08" type="line"/>
    </contour>
    <contour>
      <point x="989.4" y="564.0400000000001" type="line"/>
      <point x="150.6" y="564.0400000000001" type="line"/>
      <point x="150.6" y="463.32" type="line"/>
      <point x="989.4" y="463.32" type="line"/>
    </contour>
  </outline>
</glyph>
<glyph name="comma" format="2">
  <advance width="519.1466666666666"/>
  <unicode hex="002C"/>
  <outline>
    <contour>
      <point x="73.29333333333334" y="-290.26666666666665" type="curve"/>
      <point x="115.13333333333333" y="-339.58666666666664" type="line"/>
      <point x="316.7733333333333" y="-180.01333333333332"/>
      <point x="382.12" y="-47.906666666666666"/>
      <point x="382.12" y="86.77333333333333" type="curve" smooth="yes"/>
      <point x="382.12" y="183.46666666666664"/>
      <point x="338.40000000000003" y="225.06666666666666"/>
      <point x="256.58666666666664" y="225.06666666666666" type="curve" smooth="yes"/>
      <point x="177.38666666666666" y="225.06666666666666"/>
      <point x="132.78666666666666" y="182.22666666666666"/>
      <point x="132.78666666666666" y="107.52" type="curve" smooth="yes"/>
      <point x="132.78666666666666" y="72.41333333333334"/>
      <point x="244.50666666666666" y="32.29333333333334"/>
      <point x="244.50666666666666" y="-47.92" type="curve" smooth="yes"/>
      <point x="244.50666666666666" y="-117.39999999999999"/>
      <point x="202.76" y="-181.01333333333332"/>
    </contour>
  </outline>
</glyph>
<glyph name="slash" format="2">
  <advance width="837.1066666666666"/>
  <unicode hex="002F"/>
  <outline>
    <contour>
      <point x="69.52000000000001" y="0.0" type="line"/>
      <point x="180.21333333333334" y="0.0" type="line"/>
      <point x="770.5866666666666" y="1414.0" type="line"/>
      <point x="659.52" y="1414.0" type="line"/>
    </contour>
  </outline>
</glyph>
<glyph name="greater" format="2">
  <advance width="1140.0"/>
  <unicode hex="003E"/>
  <outline>
    <contour>
      <point x="936.2266666666667" y="493.5466666666667" type="line"/>
      <point x="936.2266666666667" y="539.8133333333333" type="line"/>
      <point x="155.73333333333335" y="200.69333333333336" type="line"/>
      <point x="155.73333333333335" y="89.98666666666668" type="line"/>
      <point x="1010.4" y="464.44000000000005" type="line"/>
      <point x="1010.4" y="562.9200000000001" type="line"/>
      <point x="155.73333333333335" y="937.3733333333333" type="line"/>
      <point x="155.73333333333335" y="827.7866666666667" type="line"/>
    </contour>
  </outline>
</glyph>
<glyph name="at" format="2">
  <advance width="1916.5066666666667"/>
  <unicode hex="0040"/>
  <outline>
    <contour>
      <point x="1335.68" y="206.39999999999998" type="curve" smooth="yes"/>
      <point x="1592.2666666666667" y="206.39999999999998"/>
      <point x="1805.92" y="437.93333333333334"/>
      <point x="1805.92" y="814.8" type="curve" smooth="yes"/>
      <point x="1805.92" y="1248.8133333333333"/>
      <point x="1523.9333333333332" y="1434.0"/>
      <point x="1075.0933333333335" y="1434.0" type="curve" smooth="yes"/>
      <point x="480.25333333333333" y="1434.0"/>
      <point x="115.77333333333333" y="1039.3333333333335"/>
      <point x="115.77333333333333" y="508.64" type="curve" smooth="yes"/>
      <point x="115.77333333333333" y="-37.906666666666666"/>
      <point x="430.7866666666667" y="-242.0"/>
      <point x="934.3333333333334" y="-242.0" type="curve" smooth="yes"/>
      <point x="1204.0933333333332" y="-242.0"/>
      <point x="1408.08" y="-173.24"/>
      <point x="1590.1733333333332" y="-52.24" type="curve"/>
      <point x="1550.72" y="12.16" type="line"/>
      <point x="1364.0933333333332" y="-102.10666666666665"/>
      <point x="1175.36" y="-161.36"/>
      <point x="950.68" y="-161.36" type="curve" smooth="yes"/>
      <point x="466.5466666666666" y="-161.36"/>
      <point x="216.28" y="46.8"/>
      <point x="216.28" y="507.61333333333334" type="curve" smooth="yes"/>
      <point x="216.28" y="1004.6533333333333"/>
      <point x="529.2933333333333" y="1355.8533333333332"/>
      <point x="1072.9866666666667" y="1355.8533333333332" type="curve" smooth="yes"/>
      <point x="1462.7333333333333" y="1355.8533333333332"/>
      <point x="1712.16" y="1206.3866666666668"/>
      <point x="1712.16" y="786.6933333333333" type="curve" smooth="yes"/>
      <point x="1712.16" y="476.9733333333333"/>
      <point x="1536.2" y="284.1733333333333"/>
      <point x="1357.5200000000002" y="284.1733333333333" type="curve" smooth="yes"/>
      <point x="1272.7333333333333" y="284.1733333333333"/>
      <point x="1228.7066666666667" y="313.3066666666667"/>
      <point x="1228.7066666666667" y="388.5733333333333" type="curve" smooth="yes"/>
      <point x="1228.7066666666667" y="418.82666666666665"/>
      <point x="1234.96" y="454.33333333333337"/>
      <point x="1249.2133333333334" y="497.84" type="curve" smooth="yes"/>
      <point x="1409.36" y="1000.8666666666667" type="line"/>
      <point x="1301.52" y="1000.8666666666667" type="line"/>
      <point x="1247.4533333333334" y="868.1466666666666" type="line"/>
      <point x="1204.8266666666666" y="739.2533333333333" type="line" smooth="yes"/>
      <point x="1126.32" y="505.4533333333333"/>
      <point x="947.6" y="299.3733333333333"/>
      <point x="803.8933333333333" y="299.3733333333333" type="curve" smooth="yes"/>
      <point x="706.8266666666667" y="299.3733333333333"/>
      <point x="668.3066666666666" y="343.02666666666664"/>
      <point x="668.3066666666666" y="431.94666666666666" type="curve" smooth="yes"/>
      <point x="668.3066666666666" y="629.2533333333333"/>
      <point x="853.3466666666666" y="937.4666666666667"/>
      <point x="1065.5866666666668" y="937.4666666666667" type="curve" smooth="yes"/>
      <point x="1152.6266666666668" y="937.4666666666667"/>
      <point x="1217.4266666666667" y="898.2"/>
      <point x="1262.9466666666667" y="816.68" type="curve"/>
      <point x="1277.0666666666666" y="844.9200000000001" type="line"/>
      <point x="1230.8133333333335" y="951.12"/>
      <point x="1161.0666666666668" y="1017.9866666666667"/>
      <point x="1044.56" y="1017.9866666666667" type="curve" smooth="yes"/>
      <point x="754.1333333333333" y="1017.9866666666667"/>
      <point x="535.04" y="662.0533333333334"/>
      <point x="535.04" y="418.0933333333333" type="curve" smooth="yes"/>
      <point x="535.04" y="292.12"/>
      <point x="607.28" y="209.01333333333332"/>
      <point x="755.2666666666667" y="209.01333333333332" type="curve" smooth="yes"/>
      <point x="888.0" y="209.01333333333332"/>
      <point x="1003.7866666666666" y="292.52"/>
      <point x="1164.8000000000002" y="548.6266666666667" type="curve"/>
      <point x="1175.5333333333333" y="548.6266666666667" type="line"/>
      <point x="1155.28" y="492.24" type="line" smooth="yes"/>
      <point x="1139.0266666666666" y="445.8533333333333"/>
      <point x="1130.4" y="403.9733333333333"/>
      <point x="1130.4" y="368.71999999999997" type="curve" smooth="yes"/>
      <point x="1130.4" y="263.959083995242"/>
      <point x="1200.725647124174" y="206.39999999999998"/>
    </contour>
  </outline>
</glyph>
<glyph name="A" format="2">
  <advance width="1610.7733333333333"/>
  <unicode hex="0041"/>
  <anchor x="782.2933333333334" y="1414.0" name="UCtop"/>
  <anchor x="1468.8400000000001" y="0.0" name="right"/>
  <anchor x="802.28" y="0.0" name="bottom"/>
  <outline>
    <contour>
      <point x="438.24" y="500.96" type="line"/>
      <point x="1136.8133333333335" y="500.96" type="line"/>
      <point x="1136.8133333333335" y="601.8133333333333" type="line"/>
      <point x="438.24" y="601.8133333333333" type="line"/>
    </contour>
    <contour>
      <point x="1408.3733333333332" y="97.73333333333333" type="line"/>
      <point x="864.0533333333334" y="1421.4666666666667" type="line"/>
      <point x="705.7066666666667" y="1421.4666666666667" type="line"/>
      <point x="208.29333333333332" y="98.36" type="line"/>
      <point x="22.74666666666667" y="71.53333333333333" type="line"/>
      <point x="22.74666666666667" y="0.0" type="line"/>
      <point x="518.8933333333333" y="0.0" type="line"/>
      <point x="518.8933333333333" y="71.53333333333333" type="line"/>
      <point x="321.61333333333334" y="97.73333333333333" type="line"/>
      <point x="783.6" y="1358.56" type="line"/>
      <point x="752.1466666666666" y="1358.56" type="line"/>
      <point x="1264.0133333333333" y="98.36" type="line"/>
      <point x="1054.2" y="71.53333333333333" type="line"/>
      <point x="1054.2" y="0.0" type="line"/>
      <point x="1603.7733333333333" y="0.0" type="line"/>
      <point x="1603.7733333333333" y="71.53333333333333" type="line"/>
    </contour>
  </outline>
</glyph>
<glyph name="B" format="2">
  <advance width="1388.9066666666668"/>
  <unicode hex="0042"/>
  <anchor x="702.7333333333332" y="1414.0" name="UCtop"/>
  <anchor x="732.7333333333333" y="0.0" name="bottom"/>
  <outline>
    <contour>
      <point x="392.14666666666665" y="1313.1466666666665" type="line"/>
      <point x="732.64" y="1313.1466666666665" type="line" smooth="yes"/>
      <point x="974.9066666666666" y="1313.1466666666665"/>
      <point x="1072.3600000000001" y="1231.6133333333332"/>
      <point x="1072.3600000000001" y="1070.1733333333334" type="curve" smooth="yes"/>
      <point x="1072.3600000000001" y="879.4666666666667"/>
      <point x="955.7733333333333" y="806.1866666666667"/>
      <point x="784.3466666666667" y="806.1866666666667" type="curve" smooth="yes"/>
      <point x="392.8933333333333" y="806.1866666666667" type="line"/>
      <point x="385.8933333333333" y="705.3333333333333" type="line"/>
      <point x="783.2266666666667" y="705.3333333333333" type="line" smooth="yes"/>
      <point x="1034.8266666666666" y="705.3333333333333"/>
      <point x="1127.6133333333335" y="595.04"/>
      <point x="1127.6133333333335" y="405.82666666666665" type="curve" smooth="yes"/>
      <point x="1127.6133333333335" y="176.64"/>
      <point x="1027.3466666666666" y="100.85333333333332"/>
      <point x="740.5066666666667" y="100.85333333333332" type="curve" smooth="yes"/>
      <point x="388.38666666666666" y="100.85333333333332" type="line"/>
      <point x="384.0" y="0.0" type="line"/>
      <point x="768.5733333333333" y="0.0" type="line" smooth="yes"/>
      <point x="1145.5733333333333" y="0.0"/>
      <point x="1261.5066666666667" y="160.0"/>
      <point x="1261.5066666666667" y="413.4666666666667" type="curve" smooth="yes"/>
      <point x="1261.5066666666667" y="628.0"/>
      <point x="1125.3733333333334" y="761.88"/>
      <point x="876.3599999999999" y="774.0" type="curve"/>
      <point x="876.36" y="755.0" type="line"/>
      <point x="1081.36" y="771.12"/>
      <point x="1197.5066666666667" y="887.24"/>
      <point x="1197.5066666666667" y="1081.0" type="curve" smooth="yes"/>
      <point x="1197.5066666666667" y="1287.0133333333333"/>
      <point x="1085.3866666666668" y="1414.0"/>
      <point x="751.9866666666667" y="1414.0" type="curve" smooth="yes"/>
      <point x="383.37333333333333" y="1414.0" type="line"/>
    </contour>
    <contour>
      <point x="109.22666666666666" y="0.0" type="line"/>
      <point x="448.68" y="0.0" type="line"/>
      <point x="448.68" y="1414.0" type="line"/>
      <point x="109.22666666666666" y="1414.0" type="line"/>
      <point x="109.22666666666666" y="1342.4666666666667" type="line"/>
      <point x="317.16" y="1315.64" type="line"/>
      <point x="317.16" y="98.36" type="line"/>
      <point x="109.22666666666666" y="71.53333333333333" type="line"/>
    </contour>
  </outline>
</glyph>
<glyph name="D" format="2">
  <advance width="1627.7333333333331"/>
  <unicode hex="0044"/>
  <anchor x="838.3333333333333" y="1414.0" name="UCtop"/>
  <anchor x="838.3333333333333" y="0.0" name="bottom"/>
  <outline>
    <contour>
      <point x="1358.6933333333334" y="713.3466666666667" type="curve" smooth="yes"/>
      <point x="1358.6933333333334" y="280.0133333333333"/>
      <point x="1141.9866666666667" y="100.85333333333332"/>
      <point x="736.0933333333334" y="100.85333333333332" type="curve" smooth="yes"/>
      <point x="370.1733333333333" y="100.85333333333332" type="line"/>
      <point x="370.17333333333335" y="0.0" type="line"/>
      <point x="753.3733333333333" y="0.0" type="line" smooth="yes"/>
      <point x="1209.24" y="0.0"/>
      <point x="1495.7066666666667" y="228.79999999999998"/>
      <point x="1495.7066666666667" y="717.8266666666667" type="curve" smooth="yes"/>
      <point x="1495.7066666666667" y="1192.6666666666665"/>
      <point x="1226.04" y="1414.0"/>
      <point x="756.7333333333333" y="1414.0" type="curve" smooth="yes"/>
      <point x="370.17333333333335" y="1414.0" type="line"/>
      <point x="370.1733333333333" y="1313.1466666666665" type="line"/>
      <point x="716.3066666666667" y="1313.1466666666665" type="line" smooth="yes"/>
      <point x="1143.48" y="1313.1466666666665"/>
      <point x="1358.6933333333334" y="1131.7466666666667"/>
    </contour>
    <contour>
      <point x="106.24" y="0.0" type="line"/>
      <point x="449.4266666666667" y="0.0" type="line"/>
      <point x="449.4266666666667" y="1414.0" type="line"/>
      <point x="106.24" y="1414.0" type="line"/>
      <point x="106.24" y="1342.4666666666667" type="line"/>
      <point x="317.9066666666667" y="1315.64" type="line"/>
      <point x="317.9066666666667" y="98.36" type="line"/>
      <point x="106.24" y="71.53333333333333" type="line"/>
    </contour>
  </outline>
</glyph>
<glyph name="F" format="2">
  <advance width="1342.9866666666667"/>
  <unicode hex="0046"/>
  <anchor x="711.72" y="1414.0" name="UCtop"/>
  <anchor x="383.6666666666667" y="0.0" name="bottom"/>
  <outline>
    <contour>
      <point x="988.1333333333333" y="932.7733333333333" type="line"/>
      <point x="907.8933333333334" y="932.7733333333333" type="line"/>
      <point x="882.12" y="725.84" type="line"/>
      <point x="393.36" y="725.84" type="line"/>
      <point x="393.36" y="624.9866666666667" type="line"/>
      <point x="882.12" y="624.9866666666667" type="line"/>
      <point x="907.8933333333334" y="414.68" type="line"/>
      <point x="988.1333333333333" y="414.68" type="line"/>
      <point x="988.1333333333333" y="673.4133333333333" type="line"/>
    </contour>
    <contour>
      <point x="1189.3333333333335" y="1484.0" type="line"/>
      <point x="1135.52" y="1414.0" type="line"/>
      <point x="358.8933333333333" y="1414.0" type="line"/>
      <point x="358.8933333333333" y="1313.1466666666665" type="line"/>
      <point x="1174.6266666666666" y="1313.1466666666665" type="line"/>
      <point x="1116.9333333333334" y="1379.6" type="line"/>
      <point x="1165.9733333333334" y="1048.5866666666668" type="line"/>
      <point x="1256.4666666666667" y="1048.5866666666666" type="line"/>
      <point x="1260.8533333333335" y="1484.0" type="line"/>
    </contour>
    <contour>
      <point x="449.4266666666667" y="1414.0" type="line"/>
      <point x="106.24" y="1414.0" type="line"/>
      <point x="106.24" y="1342.4666666666667" type="line"/>
      <point x="317.9066666666667" y="1315.64" type="line"/>
      <point x="317.9066666666667" y="98.36" type="line"/>
      <point x="106.24" y="71.53333333333333" type="line"/>
      <point x="106.24" y="0.0" type="line"/>
      <point x="661.0933333333334" y="0.0" type="line"/>
      <point x="661.0933333333334" y="71.53333333333333" type="line"/>
      <point x="449.4266666666667" y="98.36" type="line"/>
    </contour>
  </outline>
</glyph>
<glyph name="I" format="2">
  <advance width="767.3333333333334"/>
  <unicode hex="0049"/>
  <anchor x="383.6666666666667" y="1414.0" name="UCtop"/>
  <anchor x="510.50666666666666" y="0.0" name="right"/>
  <anchor x="383.6666666666667" y="0.0" name="bottom"/>
  <outline>
    <contour>
      <point x="661.0933333333334" y="71.53333333333333" type="line"/>
      <point x="449.4266666666667" y="98.36" type="line"/>
      <point x="449.4266666666667" y="1315.64" type="line"/>
      <point x="661.0933333333334" y="1342.4666666666667" type="line"/>
      <point x="661.0933333333334" y="1414.0" type="line"/>
      <point x="106.24" y="1414.0" type="line"/>
      <point x="106.24" y="1342.4666666666667" type="line"/>
      <point x="317.9066666666667" y="1315.64" type="line"/>
      <point x="317.9066666666667" y="98.36" type="line"/>
      <point x="106.24" y="71.53333333333333" type="line"/>
      <point x="106.24" y="0.0" type="line"/>
      <point x="661.0933333333334" y="0.0" type="line"/>
    </contour>
  </outline>
</glyph>
<glyph name="J" format="2">
  <advance width="1030.8666666666666"/>
  <unicode hex="004A"/>
  <anchor x="670.9466666666667" y="1414.0" name="UCtop"/>
  <anchor x="436.16" y="0.0" name="bottom"/>
  <outline>
    <contour>
      <point x="736.7066666666667" y="361.93333333333334" type="curve" smooth="yes"/>
      <point x="736.7066666666666" y="1315.64" type="line"/>
      <point x="948.3733333333333" y="1342.4666666666667" type="line"/>
      <point x="948.3733333333333" y="1414.0" type="line"/>
      <point x="393.52" y="1414.0" type="line"/>
      <point x="393.52" y="1342.4666666666667" type="line"/>
      <point x="605.1866666666666" y="1315.64" type="line"/>
      <point x="605.1866666666666" y="349.32" type="line" smooth="yes"/>
      <point x="605.1866666666666" y="154.86666666666665"/>
      <point x="518.6666666666666" y="83.33333333333331"/>
      <point x="321.05333333333334" y="83.33333333333331" type="curve" smooth="yes"/>
      <point x="185.62666666666667" y="83.33333333333331"/>
      <point x="150.14666666666668" y="179.0"/>
      <point x="114.91999999999999" y="179.0" type="curve" smooth="yes"/>
      <point x="63.839999999999996" y="179.0"/>
      <point x="37.879999999999995" y="148.54666666666665"/>
      <point x="37.879999999999995" y="102.61333333333333" type="curve" smooth="yes"/>
      <point x="37.879999999999995" y="32.053333333333335"/>
      <point x="104.61333333333334" y="-18.506666666666668"/>
      <point x="313.61333333333334" y="-18.506666666666668" type="curve" smooth="yes"/>
      <point x="606.72" y="-18.506666666666668"/>
      <point x="736.7066666666667" y="112.44000000000001"/>
    </contour>
  </outline>
</glyph>
<glyph name="L" format="2">
  <advance width="1335.9866666666667"/>
  <unicode hex="004C"/>
  <anchor x="383.6666666666667" y="1414.0" name="UCtop"/>
  <anchor x="666.44" y="0.0" name="bottom"/>
  <anchor x="1060.6399999999999" y="772.0" name="mid"/>
  <anchor x="700.24" y="1414.0" name="right"/>
  <outline>
    <contour>
      <point x="1198.7466666666667" y="-72.0" type="line"/>
      <point x="1274.1066666666666" y="421.8133333333333" type="line"/>
      <point x="1187.1066666666666" y="421.8133333333333" type="line"/>
      <point x="1064.84" y="53.2" type="line"/>
      <point x="1136.08" y="98.34666666666666" type="line"/>
      <point x="358.8933333333334" y="98.34666666666666" type="line"/>
      <point x="358.8933333333334" y="0.0" type="line"/>
      <point x="1086.1466666666668" y="0.0" type="line"/>
      <point x="1109.9733333333334" y="-72.0" type="line"/>
    </contour>
    <contour>
      <point x="449.4266666666667" y="1315.64" type="line"/>
      <point x="661.0933333333334" y="1342.4666666666667" type="line"/>
      <point x="661.0933333333334" y="1414.0" type="line"/>
      <point x="106.24" y="1414.0" type="line"/>
      <point x="106.24" y="1342.4666666666667" type="line"/>
      <point x="317.9066666666667" y="1315.64" type="line"/>
      <point x="317.9066666666667" y="98.36" type="line"/>
      <point x="106.24" y="71.53333333333333" type="line"/>
      <point x="106.24" y="0.0" type="line"/>
      <point x="449.4266666666667" y="0.0" type="line"/>
    </contour>
  </outline>
</glyph>
<glyph name="N" format="2">
  <advance width="1721.1866666666665"/>
  <unicode hex="004E"/>
  <anchor x="872.0400000000001" y="1414.0" name="UCtop"/>
  <anchor x="891.4666666666667" y="0.0" name="bottom"/>
  <outline>
    <contour>
      <point x="317.15999999999997" y="98.36" type="line"/>
      <point x="108.48" y="71.53333333333333" type="line"/>
      <point x="108.48" y="0.0" type="line"/>
      <point x="637.3866666666667" y="0.0" type="line"/>
      <point x="637.3866666666667" y="71.53333333333333" type="line"/>
      <point x="421.9866666666667" y="98.36" type="line"/>
      <point x="421.9866666666667" y="1331.84" type="line"/>
      <point x="394.52" y="1328.0800000000002" type="line"/>
      <point x="1257.4666666666667" y="-12.533333333333335" type="line"/>
      <point x="1425.7733333333333" y="-12.533333333333335" type="line"/>
      <point x="1425.7733333333333" y="1315.64" type="line"/>
      <point x="1634.4533333333331" y="1342.4666666666667" type="line"/>
      <point x="1634.4533333333331" y="1414.0" type="line"/>
      <point x="1105.5466666666666" y="1414.0" type="line"/>
      <point x="1105.5466666666666" y="1342.4666666666667" type="line"/>
      <point x="1320.9466666666667" y="1315.64" type="line"/>
      <point x="1320.9466666666667" y="19.14666666666666" type="line"/>
      <point x="1351.4666666666667" y="68.69333333333334" type="line"/>
      <point x="487.05333333333334" y="1414.0" type="line"/>
      <point x="108.48" y="1414.0" type="line"/>
      <point x="108.48" y="1342.4666666666667" type="line"/>
      <point x="317.15999999999997" y="1315.6399999999999" type="line"/>
    </contour>
  </outline>
</glyph>
<glyph name="S" format="2">
  <advance width="1255.5866666666666"/>
  <unicode hex="0053"/>
  <anchor x="602.0133333333333" y="1414.0" name="UCtop"/>
  <anchor x="635.8000000000001" y="0.0" name="bottom"/>
  <outline>
    <contour>
      <point x="1018.8533333333332" y="1353.0133333333333" type="line"/>
      <point x="917.2933333333334" y="1402.1066666666666"/>
      <point x="792.64" y="1434.0"/>
      <point x="658.4133333333333" y="1434.0" type="curve" smooth="yes"/>
      <point x="318.3066666666666" y="1434.0"/>
      <point x="159.14666666666665" y="1299.7333333333333"/>
      <point x="159.14666666666665" y="1069.4266666666667" type="curve" smooth="yes"/>
      <point x="159.14666666666665" y="789.7066666666667"/>
      <point x="381.4266666666666" y="734.9866666666667"/>
      <point x="585.4266666666666" y="690.6133333333333" type="curve" smooth="yes"/>
      <point x="789.4266666666666" y="646.2399999999999"/>
      <point x="991.4266666666666" y="606.7066666666666"/>
      <point x="991.4266666666666" y="379.88" type="curve" smooth="yes"/>
      <point x="991.4266666666666" y="161.90666666666667"/>
      <point x="824.5600000000001" y="78.47999999999999"/>
      <point x="554.4133333333334" y="78.47999999999999" type="curve" smooth="yes"/>
      <point x="413.0533333333333" y="78.47999999999999"/>
      <point x="310.8933333333333" y="96.97333333333333"/>
      <point x="208.55999999999997" y="150.46666666666664" type="curve"/>
      <point x="341.22666666666663" y="24.826666666666668" type="line"/>
      <point x="222.8533333333333" y="415.8" type="line"/>
      <point x="132.02666666666667" y="415.8" type="line"/>
      <point x="177.61333333333334" y="32.0" type="line"/>
      <point x="287.44" y="-4.106666666666666"/>
      <point x="400.4266666666667" y="-20.0"/>
      <point x="548.52" y="-20.0" type="curve" smooth="yes"/>
      <point x="897.7066666666666" y="-20.0"/>
      <point x="1120.2" y="103.76"/>
      <point x="1120.2" y="397.47999999999996" type="curve" smooth="yes"/>
      <point x="1120.2" y="710.1733333333334"/>
      <point x="879.8533333333334" y="761.1733333333334"/>
      <point x="674.3466666666667" y="803.9333333333334" type="curve" smooth="yes"/>
      <point x="468.84" y="846.6933333333334"/>
      <point x="285.5466666666666" y="882.3333333333333"/>
      <point x="285.5466666666666" y="1089.7866666666666" type="curve" smooth="yes"/>
      <point x="285.5466666666666" y="1255.6933333333334"/>
      <point x="403.5333333333333" y="1336.3866666666665"/>
      <point x="640.2666666666667" y="1336.3866666666665" type="curve" smooth="yes"/>
      <point x="787.0" y="1336.3866666666665"/>
      <point x="878.0133333333333" y="1308.24"/>
      <point x="981.0533333333334" y="1236.8266666666668" type="curve"/>
      <point x="916.4266666666667" y="1293.5466666666669" type="line"/>
      <point x="960.0799999999999" y="993.0266666666666" type="line"/>
      <point x="1057.92" y="993.0266666666666" type="line"/>
      <point x="1057.9199999999998" y="1471.4666666666667" type="line"/>
      <point x="979.9066666666666" y="1471.4666666666667" type="line"/>
      <point x="934.2666666666667" y="1357.84" type="line"/>
    </contour>
  </outline>
</glyph>
<glyph name="U" format="2">
  <advance width="1682.6533333333334"/>
  <unicode hex="0055"/>
  <anchor x="857.6666666666667" y="1414.0" name="UCtop"/>
  <anchor x="1011.2800000000001" y="0.0" name="right"/>
  <anchor x="846.4666666666666" y="0.0" name="bottom"/>
  <anchor x="1454.9333333333332" y="1414.0" name="horn"/>
  <outline>
    <contour>
      <point x="1288.52" y="529.5733333333333" type="line" smooth="yes"/>
      <point x="1288.52" y="202.86666666666667"/>
      <point x="1147.3733333333334" y="89.2"/>
      <point x="866.3066666666666" y="89.2" type="curve" smooth="yes"/>
      <point x="551.6933333333333" y="89.2"/>
      <point x="419.2" y="207.97333333333333"/>
      <point x="419.2" y="552.0799999999999" type="curve" smooth="yes"/>
      <point x="419.2" y="1315.64" type="line"/>
      <point x="630.8666666666667" y="1342.4666666666667" type="line"/>
      <point x="630.8666666666667" y="1414.0" type="line"/>
      <point x="76.01333333333334" y="1414.0" type="line"/>
      <point x="76.01333333333334" y="1342.4666666666667" type="line"/>
      <point x="287.68" y="1315.64" type="line"/>
      <point x="287.68" y="538.2933333333333" type="line" smooth="yes"/>
      <point x="287.68" y="134.07999999999998"/>
      <point x="470.74666666666667" y="-20.0"/>
      <point x="856.8133333333334" y="-20.0" type="curve" smooth="yes"/>
      <point x="1191.3600000000001" y="-20.0"/>
      <point x="1394.6000000000001" y="134.42666666666665"/>
      <point x="1394.6000000000001" y="513.2533333333333" type="curve" smooth="yes"/>
      <point x="1394.6000000000001" y="1315.64" type="line"/>
      <point x="1606.2666666666667" y="1342.4666666666667" type="line"/>
      <point x="1606.2666666666667" y="1414.0" type="line"/>
      <point x="1076.8533333333335" y="1414.0" type="line"/>
      <point x="1076.8533333333335" y="1342.4666666666667" type="line"/>
      <point x="1288.52" y="1315.64" type="line"/>
    </contour>
  </outline>
</glyph>
<glyph name="W" format="2">
  <advance width="2158.4"/>
  <unicode hex="0057"/>
  <anchor x="1081.9733333333334" y="1414.0" name="UCtop"/>
  <anchor x="1098.24" y="0.0" name="bottom"/>
  <outline>
    <contour>
      <point x="1102.0266666666666" y="1315.6533333333334" type="line"/>
      <point x="1081.64" y="1315.6533333333334" type="line"/>
      <point x="1477.96" y="0.0" type="line"/>
      <point x="1649.4133333333332" y="0.0" type="line"/>
      <point x="1952.12" y="1315.64" type="line"/>
      <point x="2132.653333333333" y="1342.4666666666667" type="line"/>
      <point x="2132.653333333333" y="1414.0" type="line"/>
      <point x="1642.7466666666667" y="1414.0" type="line"/>
      <point x="1642.7466666666667" y="1342.4666666666667" type="line"/>
      <point x="1845.04" y="1316.2666666666667" type="line"/>
      <point x="1567.3066666666668" y="62.49333333333333" type="line"/>
      <point x="1598.0933333333335" y="62.49333333333333" type="line"/>
      <point x="1188.72" y="1414.0" type="line"/>
      <point x="1025.6133333333332" y="1414.0" type="line"/>
      <point x="611.9333333333334" y="74.81333333333333" type="line"/>
      <point x="633.1333333333333" y="74.81333333333333" type="line"/>
      <point x="360.26666666666665" y="1315.64" type="line"/>
      <point x="568.1999999999999" y="1342.4666666666667" type="line"/>
      <point x="568.1999999999999" y="1414.0" type="line"/>
      <point x="15.73333333333333" y="1414.0" type="line"/>
      <point x="15.73333333333333" y="1342.4666666666667" type="line"/>
      <point x="220.16" y="1316.2666666666667" type="line"/>
      <point x="513.5066666666667" y="0.0" type="line"/>
      <point x="687.68" y="0.0" type="line"/>
    </contour>
  </outline>
</glyph>
<glyph name="X" format="2">
  <advance width="1653.9066666666665"/>
  <unicode hex="0058"/>
  <anchor x="842.3466666666667" y="1414.0" name="UCtop"/>
  <anchor x="813.6" y="0.0" name="bottom"/>
  <outline>
    <contour>
      <point x="838.1733333333334" y="688.9333333333333" type="line"/>
      <point x="873.52" y="722.6666666666666" type="line"/>
      <point x="1369.8933333333332" y="1315.64" type="line"/>
      <point x="1550.4266666666665" y="1342.4666666666667" type="line"/>
      <point x="1550.4266666666665" y="1414.0" type="line"/>
      <point x="1051.7733333333333" y="1414.0" type="line"/>
      <point x="1051.7733333333333" y="1342.4666666666667" type="line"/>
      <point x="1248.4666666666667" y="1316.2666666666667" type="line"/>
      <point x="818.6" y="794.6933333333334" type="line"/>
      <point x="780.3866666666667" y="758.0933333333334" type="line"/>
      <point x="228.89333333333332" y="98.36" type="line"/>
      <point x="48.36" y="71.53333333333333" type="line"/>
      <point x="48.36" y="0.0" type="line"/>
      <point x="547.0133333333334" y="0.0" type="line"/>
      <point x="547.0133333333334" y="71.53333333333333" type="line"/>
      <point x="350.32" y="97.73333333333333" type="line"/>
    </contour>
    <contour>
      <point x="1245.68" y="98.36" type="line"/>
      <point x="1031.48" y="71.53333333333333" type="line"/>
      <point x="1031.48" y="0.0" type="line"/>
      <point x="1613.7733333333333" y="0.0" type="line"/>
      <point x="1613.7733333333333" y="71.53333333333333" type="line"/>
      <point x="1422.7066666666667" y="97.73333333333333" type="line"/>
      <point x="878.8666666666667" y="779.6666666666667" type="line"/>
      <point x="861.0" y="802.1600000000001" type="line"/>
      <point x="456.61333333333334" y="1315.64" type="line"/>
      <point x="670.8133333333333" y="1342.4666666666667" type="line"/>
      <point x="670.8133333333333" y="1414.0" type="line"/>
      <point x="88.52" y="1414.0" type="line"/>
      <point x="88.52" y="1342.4666666666667" type="line"/>
      <point x="279.5866666666667" y="1316.2666666666667" type="line"/>
      <point x="767.1866666666666" y="704.4533333333333" type="line"/>
      <point x="787.5466666666666" y="679.3466666666667" type="line"/>
    </contour>
  </outline>
</glyph>
<glyph name="Z" format="2">
  <advance width="1340.7466666666667"/>
  <unicode hex="005A"/>
  <anchor x="684.0533333333333" y="1414.0" name="UCtop"/>
  <anchor x="650.3199999999999" y="0.0" name="bottom"/>
  <outline>
    <contour>
      <point x="1194.2666666666667" y="1414.0" type="line"/>
      <point x="259.70666666666665" y="1414.0" type="line"/>
      <point x="205.89333333333332" y="1484.0" type="line"/>
      <point x="134.37333333333333" y="1484.0" type="line"/>
      <point x="138.76" y="1030.8266666666666" type="line"/>
      <point x="229.2533333333333" y="1030.8266666666666" type="line"/>
      <point x="267.2" y="1313.1466666666665" type="line"/>
      <point x="1083.9733333333334" y="1313.1466666666665" type="line"/>
      <point x="1052.8" y="1338.9066666666665" type="line"/>
      <point x="125.00000000000001" y="85.24000000000001" type="line"/>
      <point x="125.00000000000001" y="0.0" type="line"/>
      <point x="1059.8933333333332" y="0.0" type="line"/>
      <point x="1083.72" y="-70.74666666666667" type="line"/>
      <point x="1172.4933333333333" y="-70.74666666666667" type="line"/>
      <point x="1243.48" y="393.1466666666667" type="line"/>
      <point x="1152.72" y="393.1466666666667" type="line"/>
      <point x="1057.3999999999999" y="100.85333333333332" type="line"/>
      <point x="235.92000000000002" y="100.85333333333332" type="line"/>
      <point x="268.0933333333333" y="74.72" type="line"/>
      <point x="1194.2666666666667" y="1328.1333333333334" type="line"/>
    </contour>
  </outline>
</glyph>
<glyph name="c" format="2">
  <advance width="1091.6133333333332"/>
  <unicode hex="0063"/>
  <anchor x="609.1466666666666" y="1024.0" name="top"/>
  <anchor x="996.5066666666667" y="0.0" name="right"/>
  <anchor x="605.2133333333333" y="0.0" name="bottom"/>
  <outline>
    <contour>
      <point x="678.0666666666667" y="1044.0" type="curve" smooth="yes"/>
      <point x="310.18823529411765" y="1044.0"/>
      <point x="110.77333333333334" y="833.1999999999999"/>
      <point x="110.77333333333334" y="504.26666666666665" type="curve" smooth="yes"/>
      <point x="110.77333333333334" y="150.72"/>
      <point x="290.72" y="-20.0"/>
      <point x="594.12" y="-20.0" type="curve" smooth="yes"/>
      <point x="734.4266666666666" y="-20.0"/>
      <point x="849.5866666666667" y="14.693333333333333"/>
      <point x="996.5066666666667" y="100.18666666666667" type="curve"/>
      <point x="996.5066666666667" y="174.85333333333332" type="line"/>
      <point x="866.8533333333334" y="113.57333333333332"/>
      <point x="762.8666666666667" y="89.45333333333333"/>
      <point x="638.68" y="89.45333333333333" type="curve" smooth="yes"/>
      <point x="367.0933333333333" y="89.45333333333333"/>
      <point x="232.82666666666665" y="222.45333333333332"/>
      <point x="232.82666666666665" y="526.3066666666666" type="curve" smooth="yes"/>
      <point x="232.82666666666665" y="814.7066666666667"/>
      <point x="391.8885172798216" y="950.5066666666667"/>
      <point x="637.0533333333333" y="950.5066666666667" type="curve" smooth="yes"/>
      <point x="771.9866666666667" y="950.5066666666667"/>
      <point x="889.32" y="800.6800000000001"/>
      <point x="906.1733333333334" y="800.6800000000001" type="curve" smooth="yes"/>
      <point x="959.8533333333332" y="800.6800000000001"/>
      <point x="1003.1999999999999" y="843.4933333333333"/>
      <point x="1003.1999999999999" y="900.3199999999999" type="curve" smooth="yes"/>
      <point x="1003.1999999999999" y="957.6533333333333"/>
      <point x="934.96" y="1044.0"/>
    </contour>
  </outline>
</glyph>
<glyph name="d" format="2">
  <advance width="1322.6533333333332"/>
  <unicode hex="0064"/>
  <anchor x="1067.96" y="1464.0" name="right"/>
  <anchor x="598.8933333333333" y="1432.6666666666667" name="UCtop"/>
  <anchor x="699.0266666666666" y="0.0" name="bottom"/>
  <anchor x="946.5999999999999" y="1192.56" name="center"/>
  <outline>
    <contour>
      <point x="947.04" y="791.4533333333333" type="curve" smooth="yes"/>
      <point x="947.04" y="158.89333333333332" type="line"/>
      <point x="982.56" y="-16.240000000000002" type="line"/>
      <point x="1009.9066666666665" y="-16.240000000000002" type="line"/>
      <point x="1288.9333333333332" y="55.24" type="line"/>
      <point x="1288.9333333333332" y="95.35999999999999" type="line"/>
      <point x="1246.9333333333332" y="105.49766326713186"/>
      <point x="1091.96" y="137.32704956163894"/>
      <point x="1067.96" y="143.12" type="curve"/>
      <point x="1067.96" y="1348.8133333333333" type="line"/>
      <point x="1081.6933333333334" y="1484.0" type="line"/>
      <point x="1055.3600000000001" y="1484.0" type="line"/>
      <point x="731.5466666666667" y="1434.0533333333333" type="line"/>
      <point x="731.5466666666667" y="1380.12" type="line"/>
      <point x="788.5466666666667" y="1367.331662522507"/>
      <point x="923.04" y="1336.9578964817515"/>
      <point x="947.04" y="1331.5733333333333" type="curve"/>
      <point x="947.04" y="911.8133333333334" type="line"/>
      <point x="1030.4533333333331" y="963.5733333333333" type="line"/>
      <point x="908.3466666666667" y="1022.2666666666667"/>
      <point x="831.28" y="1044.0"/>
      <point x="696.9333333333333" y="1044.0" type="curve" smooth="yes"/>
      <point x="352.0133333333333" y="1044.0"/>
      <point x="111.14666666666668" y="828.2666666666667"/>
      <point x="111.14666666666668" y="475.1333333333333" type="curve" smooth="yes"/>
      <point x="111.14666666666668" y="154.46666666666667"/>
      <point x="265.26666666666665" y="-20.0"/>
      <point x="582.5466666666666" y="-20.0" type="curve" smooth="yes"/>
      <point x="664.4266666666667" y="-20.0"/>
      <point x="729.52" y="-0.7600000000000007"/>
      <point x="1014.9866666666667" y="167.36" type="curve"/>
      <point x="1014.9866666666667" y="208.25333333333333" type="line"/>
      <point x="861.1466666666666" y="121.18666666666667"/>
      <point x="744.52" y="88.18666666666667"/>
      <point x="624.9066666666666" y="88.18666666666667" type="curve" smooth="yes"/>
      <point x="365.18666666666667" y="88.18666666666667"/>
      <point x="240.92000000000002" y="234.6533333333333"/>
      <point x="240.92000000000002" y="487.67999999999995" type="curve" smooth="yes"/>
      <point x="240.92000000000002" y="778.8"/>
      <point x="397.38666666666666" y="956.1333333333334"/>
      <point x="689.8133333333333" y="956.1333333333334" type="curve" smooth="yes"/>
      <point x="863.3733333333333" y="956.1333333333334"/>
      <point x="947.04" y="889.6933333333334"/>
    </contour>
  </outline>
</glyph>
<glyph name="f" format="2">
  <advance width="841.3466666666666"/>
  <unicode hex="0066"/>
  <anchor x="660.9733333333334" y="1432.04" name="UCtop"/>
  <anchor x="335.17333333333335" y="0.0" name="bottom"/>
  <outline>
    <contour>
      <point x="330.1733333333333" y="924.7733333333334" type="line"/>
      <point x="800.24" y="924.7733333333334" type="line"/>
      <point x="800.24" y="1024.0" type="line"/>
      <point x="330.1733333333333" y="1024.0" type="line"/>
      <point x="291.02666666666664" y="1035.4666666666667" type="line"/>
      <point x="60.346666666666664" y="993.8" type="line"/>
      <point x="60.346666666666664" y="949.2266666666667" type="line"/>
      <point x="276.28" y="912.6800000000001" type="line"/>
    </contour>
    <contour>
      <point x="395.32" y="90.88" type="line"/>
      <point x="395.32" y="1142.3466666666666" type="line" smooth="yes"/>
      <point x="395.32" y="1317.72"/>
      <point x="477.0933333333333" y="1397.3733333333334"/>
      <point x="685.8266666666666" y="1397.3733333333334" type="curve" smooth="yes"/>
      <point x="859.3599999999999" y="1397.3733333333334"/>
      <point x="895.08" y="1264.1599999999999"/>
      <point x="921.3066666666666" y="1264.1599999999999" type="curve" smooth="yes"/>
      <point x="975.2533333333333" y="1264.1599999999999"/>
      <point x="1011.5866666666667" y="1294.7466666666667"/>
      <point x="1011.5866666666667" y="1351.5733333333333" type="curve" smooth="yes"/>
      <point x="1011.5866666666667" y="1425.52"/>
      <point x="932.4666666666667" y="1484.0"/>
      <point x="697.7733333333333" y="1484.0" type="curve" smooth="yes"/>
      <point x="439.1066666666667" y="1484.0"/>
      <point x="274.4" y="1364.8"/>
      <point x="274.4" y="1111.1733333333332" type="curve" smooth="yes"/>
      <point x="274.4" y="90.88" type="line"/>
      <point x="107.4" y="65.91999999999999" type="line"/>
      <point x="107.4" y="0.0" type="line"/>
      <point x="570.16" y="0.0" type="line"/>
      <point x="570.16" y="65.91999999999999" type="line"/>
    </contour>
  </outline>
</glyph>
<glyph name="h" format="2">
  <advance width="1324.76"/>
  <unicode hex="0068"/>
  <anchor x="669.9866666666667" y="1432.6666666666667" name="UCtop"/>
  <anchor x="662.8133333333334" y="0.0" name="bottom"/>
  <anchor x="359.0" y="1192.56" name="center"/>
  <outline>
    <contour>
      <point x="811.1733333333333" y="65.91999999999999" type="line"/>
      <point x="811.1733333333333" y="0.0" type="line"/>
      <point x="1263.1066666666666" y="0.0" type="line"/>
      <point x="1263.1066666666666" y="65.91999999999999" type="line"/>
      <point x="1095.7333333333333" y="90.88" type="line"/>
      <point x="1095.7333333333333" y="729.5333333333333" type="line" smooth="yes"/>
      <point x="1095.7333333333333" y="941.1466666666666"/>
      <point x="1003.76" y="1044.0"/>
      <point x="771.6266666666667" y="1044.0" type="curve" smooth="yes"/>
      <point x="637.48" y="1044.0"/>
      <point x="564.12" y="1017.8399999999999"/>
      <point x="342.9466666666667" y="870.4533333333333" type="curve"/>
      <point x="348.91999999999996" y="832.08" type="line"/>
      <point x="482.0533333333333" y="897.4266666666666"/>
      <point x="587.8" y="922.44"/>
      <point x="701.9733333333334" y="922.44" type="curve" smooth="yes"/>
      <point x="910.6933333333334" y="922.44"/>
      <point x="974.8133333333333" y="860.8"/>
      <point x="974.8133333333333" y="670.6666666666667" type="curve" smooth="yes"/>
      <point x="974.8133333333333" y="90.88" type="line"/>
    </contour>
    <contour>
      <point x="522.2" y="0.0" type="line"/>
      <point x="522.2" y="65.91999999999999" type="line"/>
      <point x="358.56" y="90.88" type="line"/>
      <point x="358.56" y="1348.8133333333333" type="line"/>
      <point x="372.29333333333335" y="1484.0" type="line"/>
      <point x="345.96" y="1484.0" type="line"/>
      <point x="22.14666666666667" y="1434.0533333333333" type="line"/>
      <point x="22.14666666666667" y="1380.1200000000001" type="line"/>
      <point x="100.14666666666666" y="1362.6201697676413"/>
      <point x="211.64" y="1337.4066100774528"/>
      <point x="237.64" y="1331.5733333333335" type="curve"/>
      <point x="237.64" y="90.88" type="line"/>
      <point x="70.64" y="65.91999999999999" type="line"/>
      <point x="70.64" y="0.0" type="line"/>
    </contour>
  </outline>
</glyph>
<glyph name="j" format="2">
  <advance width="561.2266666666667"/>
  <unicode hex="006A"/>
  <anchor x="282.66666666666663" y="1440.1333333333332" name="top"/>
  <anchor x="243.29333333333335" y="-445.0" name="bottom"/>
  <outline>
    <contour>
      <point x="286.5466666666667" y="1264.64" type="curve" smooth="yes"/>
      <point x="358.36" y="1264.64"/>
      <point x="406.06666666666666" y="1301.7466666666667"/>
      <point x="406.06666666666666" y="1375.5733333333335" type="curve" smooth="yes"/>
      <point x="406.06666666666666" y="1449.3999999999999"/>
      <point x="358.36" y="1484.0"/>
      <point x="286.5466666666667" y="1484.0" type="curve" smooth="yes"/>
      <point x="214.73333333333335" y="1484.0"/>
      <point x="167.02666666666664" y="1449.3999999999999"/>
      <point x="167.02666666666664" y="1375.5733333333335" type="curve" smooth="yes"/>
      <point x="167.02666666666664" y="1301.7466666666667"/>
      <point x="214.73333333333335" y="1264.64"/>
    </contour>
    <contour>
      <point x="248.28" y="883.3733333333333" type="curve"/>
      <point x="248.28" y="-15.146666666666668" type="line" smooth="yes"/>
      <point x="248.28" y="-126.53333333333333"/>
      <point x="227.37333333333333" y="-164.97333333333333"/>
      <point x="13.42666666666667" y="-408.09333333333336" type="curve"/>
      <point x="68.73333333333333" y="-465.0" type="line"/>
      <point x="334.9733333333333" y="-208.34666666666666"/>
      <point x="369.2" y="-155.4933333333333"/>
      <point x="369.2" y="-10.373333333333335" type="curve" smooth="yes"/>
      <point x="369.2" y="893.9466666666667" type="line"/>
      <point x="380.06666666666666" y="1044.0" type="line"/>
      <point x="347.76000000000005" y="1044.0" type="line"/>
      <point x="54.74666666666667" y="982.48" type="line"/>
      <point x="54.74666666666667" y="935.2666666666667" type="line"/>
      <point x="115.74666666666667" y="918.3661629238705"/>
      <point x="226.28" y="889.4685969782762"/>
    </contour>
  </outline>
</glyph>
<glyph name="k" format="2">
  <advance width="1315.72"/>
  <unicode hex="006B"/>
  <anchor x="671.0" y="0.0" name="bottom"/>
  <anchor x="656.7333333333333" y="1432.6666666666667" name="UCtop"/>
  <outline>
    <contour>
      <point x="623.08" y="553.6" type="line"/>
      <point x="1065.04" y="933.9733333333332" type="line"/>
      <point x="1231.7333333333331" y="959.9466666666666" type="line"/>
      <point x="1231.7333333333331" y="1024.0" type="line"/>
      <point x="751.8" y="1024.0" type="line"/>
      <point x="751.8" y="959.9466666666666" type="line"/>
      <point x="923.36" y="930.9733333333332" type="line"/>
      <point x="585.4133333333333" y="627.5600000000001" type="line"/>
      <point x="317.81333333333333" y="627.5600000000001" type="line"/>
      <point x="317.81333333333333" y="531.3199999999999" type="line"/>
      <point x="572.3333333333334" y="531.3199999999999" type="line"/>
      <point x="980.0266666666668" y="87.26666666666665" type="line"/>
      <point x="861.9599999999999" y="65.91999999999999" type="line"/>
      <point x="861.9599999999999" y="0.0" type="line"/>
      <point x="1288.2133333333334" y="0.0" type="line"/>
      <point x="1288.2133333333334" y="65.91999999999999" type="line"/>
      <point x="1132.16" y="93.11999999999999" type="line"/>
      <point x="641.0666666666667" y="622.8133333333334" type="line"/>
    </contour>
    <contour>
      <point x="358.56" y="90.88" type="line"/>
      <point x="358.56" y="1348.8133333333333" type="line"/>
      <point x="372.29333333333335" y="1484.0" type="line"/>
      <point x="345.96" y="1484.0" type="line"/>
      <point x="22.14666666666667" y="1434.0533333333333" type="line"/>
      <point x="22.14666666666667" y="1380.1200000000001" type="line"/>
      <point x="100.14666666666666" y="1362.6201697676413"/>
      <point x="211.64" y="1337.4066100774528"/>
      <point x="237.64" y="1331.5733333333335" type="curve"/>
      <point x="237.64" y="90.88" type="line"/>
      <point x="70.64" y="65.91999999999999" type="line"/>
      <point x="70.64" y="0.0" type="line"/>
      <point x="522.2" y="0.0" type="line"/>
      <point x="522.2" y="65.91999999999999" type="line"/>
    </contour>
  </outline>
</glyph>
<glyph name="r" format="2">
  <advance width="871.16"/>
  <unicode hex="0072"/>
  <anchor x="459.3066666666667" y="1024.0" name="top"/>
  <anchor x="328.04" y="0.0" name="bottom"/>
  <outline>
    <contour>
      <point x="746.2533333333333" y="1043.2533333333333" type="curve" smooth="yes"/>
      <point x="663.4133333333333" y="1043.2533333333333"/>
      <point x="595.4533333333334" y="1017.2800000000001"/>
      <point x="333.35999999999996" y="819.6666666666666" type="curve"/>
      <point x="359.9733333333333" y="795.3199999999999" type="line"/>
      <point x="487.02666666666664" y="873.5600000000001"/>
      <point x="539.3066666666666" y="883.0666666666667"/>
      <point x="601.4666666666667" y="883.0666666666667" type="curve" smooth="yes"/>
      <point x="659.1333333333333" y="883.0666666666667"/>
      <point x="722.5466666666666" y="879.3333333333334"/>
      <point x="787.84" y="879.3333333333334" type="curve" smooth="yes"/>
      <point x="807.1999999999999" y="879.3333333333334"/>
      <point x="823.92" y="916.3066666666667"/>
      <point x="823.92" y="965.2133333333333" type="curve" smooth="yes"/>
      <point x="823.92" y="1014.5333333333333"/>
      <point x="795.4666666666666" y="1043.2533333333333"/>
    </contour>
    <contour>
      <point x="388.18666666666667" y="866.3466666666667" type="line"/>
      <point x="362.26666666666665" y="1045.8666666666666" type="line"/>
      <point x="337.4266666666667" y="1045.8666666666666" type="line"/>
      <point x="73.73333333333333" y="975.0133333333333" type="line"/>
      <point x="73.73333333333333" y="935.2666666666667" type="line"/>
      <point x="147.73333333333332" y="911.7117458746783"/>
      <point x="241.26666666666665" y="884.182719917906"/>
      <point x="267.26666666666665" y="875.9066666666666" type="curve"/>
      <point x="267.26666666666665" y="90.88" type="line"/>
      <point x="100.26666666666667" y="65.91999999999999" type="line"/>
      <point x="100.26666666666667" y="0.0" type="line"/>
      <point x="575.56" y="0.0" type="line"/>
      <point x="575.56" y="65.91999999999999" type="line"/>
      <point x="388.18666666666667" y="90.88" type="line"/>
    </contour>
  </outline>
</glyph>
<glyph name="w" format="2">
  <advance width="1811.6"/>
  <unicode hex="0077"/>
  <anchor x="920.4933333333333" y="1024.0" name="top"/>
  <anchor x="917.5066666666667" y="0.0" name="bottom"/>
  <outline>
    <contour>
      <point x="1524.4266666666667" y="934.6133333333332" type="line"/>
      <point x="1281.28" y="62.693333333333335" type="line"/>
      <point x="1312.4666666666667" y="62.693333333333335" type="line"/>
      <point x="991.5200000000001" y="1044.0" type="line"/>
      <point x="867.8133333333334" y="1044.0" type="line"/>
      <point x="530.8933333333333" y="50.37333333333333" type="line"/>
      <point x="567.0533333333333" y="50.37333333333333" type="line"/>
      <point x="326.4533333333333" y="933.7466666666667" type="line"/>
      <point x="485.5866666666667" y="959.9466666666666" type="line"/>
      <point x="485.5866666666667" y="1024.0" type="line"/>
      <point x="40.02666666666667" y="1024.0" type="line"/>
      <point x="40.02666666666667" y="966.2133333333333" type="line"/>
      <point x="198.16" y="930.7600000000001" type="line"/>
      <point x="464.12" y="-20.0" type="line"/>
      <point x="591.8266666666667" y="-20.0" type="line"/>
      <point x="925.08" y="943.0533333333333" type="line"/>
      <point x="896.96" y="940.0666666666666" type="line"/>
      <point x="1216.6266666666668" y="-20.0" type="line"/>
      <point x="1344.3333333333333" y="-20.0" type="line"/>
      <point x="1620.3066666666666" y="937.1066666666666" type="line"/>
      <point x="1765.1200000000001" y="959.9466666666666" type="line"/>
      <point x="1765.1200000000001" y="1024.0" type="line"/>
      <point x="1361.5333333333333" y="1024.0" type="line"/>
      <point x="1361.5333333333333" y="959.9466666666666" type="line"/>
    </contour>
  </outline>
</glyph>
<glyph name="asciitilde" format="2">
  <advance width="1140.0"/>
  <unicode hex="007E"/>
  <outline>
    <contour>
      <point x="149.34666666666666" y="384.8" type="curve"/>
      <point x="251.32000000000002" y="384.8" type="line"/>
      <point x="262.08" y="495.94666666666666"/>
      <point x="299.0933333333333" y="548.5866666666667"/>
      <point x="394.76" y="548.5866666666667" type="curve" smooth="yes"/>
      <point x="527.4399999999999" y="548.5866666666667"/>
      <point x="579.9333333333333" y="375.68"/>
      <point x="758.8" y="375.68" type="curve" smooth="yes"/>
      <point x="883.3733333333333" y="375.68"/>
      <point x="985.2666666666667" y="440.74666666666667"/>
      <point x="991.4" y="642.56" type="curve"/>
      <point x="889.4266666666667" y="642.56" type="line"/>
      <point x="878.6666666666666" y="531.0400000000001"/>
      <point x="841.6533333333333" y="478.7733333333333"/>
      <point x="745.9866666666667" y="478.7733333333333" type="curve" smooth="yes"/>
      <point x="613.3066666666667" y="478.7733333333333"/>
      <point x="560.8133333333334" y="651.3066666666666"/>
      <point x="381.94666666666666" y="651.3066666666666" type="curve" smooth="yes"/>
      <point x="257.37333333333333" y="651.3066666666666"/>
      <point x="155.48" y="586.6133333333333"/>
    </contour>
  </outline>
</glyph>
<glyph name="brokenbar" format="2">
  <advance width="570.16"/>
  <unicode hex="00A6"/>
  <outline>
    <contour>
      <point x="336.88" y="775.0" type="line"/>
      <point x="336.88" y="1535.0" type="line"/>
      <point x="233.28" y="1535.0" type="line"/>
      <point x="233.28" y="775.0" type="line"/>
    </contour>
    <contour>
      <point x="233.28" y="-465.0" type="line"/>
      <point x="336.88" y="-465.0" type="line"/>
      <point x="336.88" y="295.0" type="line"/>
      <point x="233.28" y="295.0" type="line"/>
    </contour>
  </outline>
</glyph>
<glyph name="ordfeminine" format="2">
  <advance width="985.3333333333333"/>
  <unicode hex="00AA"/>
  <outline>
    <contour>
      <point x="168.02666666666667" y="532.56" type="line"/>
      <point x="818.92" y="532.56" type="line"/>
      <point x="818.92" y="625.0666666666667" type="line"/>
      <point x="168.02666666666667" y="625.0666666666667" type="line"/>
    </contour>
    <contour>
      <point x="642.9333333333334" y="1118.6933333333334" type="curve"/>
      <point x="644.1866666666667" y="1191.3600000000001" type="line"/>
      <point x="233.25333333333333" y="1128.1200000000001"/>
      <point x="172.90666666666667" y="1062.6"/>
      <point x="172.90666666666667" y="938.6133333333333" type="curve" smooth="yes"/>
      <point x="172.90666666666667" y="823.4933333333333"/>
      <point x="245.90666666666667" y="767.3733333333333"/>
      <point x="397.41333333333336" y="767.3733333333333" type="curve" smooth="yes"/>
      <point x="529.2933333333333" y="767.3733333333333"/>
      <point x="611.9333333333334" y="822.88"/>
      <point x="636.2933333333333" y="966.1333333333333" type="curve"/>
      <point x="626.3066666666666" y="964.2533333333333" type="line"/>
      <point x="620.2933333333333" y="815.6133333333333"/>
      <point x="654.1733333333334" y="774.2533333333333"/>
      <point x="731.0133333333334" y="774.2533333333333" type="curve" smooth="yes"/>
      <point x="775.12" y="774.2533333333333"/>
      <point x="812.3466666666667" y="782.7466666666667"/>
      <point x="853.9466666666666" y="799.7333333333333" type="curve"/>
      <point x="853.9466666666666" y="861.1733333333334" type="line"/>
      <point x="825.0666666666666" y="849.6666666666667"/>
      <point x="809.8133333333333" y="847.0400000000001"/>
      <point x="788.4266666666666" y="847.0400000000001" type="curve" smooth="yes"/>
      <point x="741.04" y="847.0400000000001"/>
      <point x="728.04" y="862.9200000000001"/>
      <point x="728.04" y="945.84" type="curve" smooth="yes"/>
      <point x="728.04" y="1209.6266666666666" type="line" smooth="yes"/>
      <point x="728.04" y="1363.8666666666666"/>
      <point x="670.4133333333333" y="1430.6133333333332"/>
      <point x="490.93333333333334" y="1430.6133333333332" type="curve" smooth="yes"/>
      <point x="334.36" y="1430.6133333333332"/>
      <point x="180.02666666666667" y="1340.88"/>
      <point x="180.02666666666667" y="1278.6666666666667" type="curve" smooth="yes"/>
      <point x="180.02666666666667" y="1256.9333333333334"/>
      <point x="197.76000000000002" y="1242.44"/>
      <point x="235.22666666666666" y="1242.44" type="curve" smooth="yes"/>
      <point x="269.3066666666667" y="1242.44"/>
      <point x="285.8" y="1250.4266666666667"/>
      <point x="300.29333333333335" y="1273.2933333333333" type="curve" smooth="yes"/>
      <point x="314.7866666666667" y="1296.16"/>
      <point x="326.41333333333336" y="1332.28"/>
      <point x="338.7866666666667" y="1374.6266666666668" type="curve"/>
      <point x="268.16" y="1324.6533333333334" type="line"/>
      <point x="342.08" y="1348.5466666666666"/>
      <point x="388.9733333333333" y="1358.68"/>
      <point x="445.8666666666667" y="1358.68" type="curve" smooth="yes"/>
      <point x="580.1733333333333" y="1358.68"/>
      <point x="624.4399999999999" y="1311.2933333333333"/>
      <point x="624.4399999999999" y="1199.8666666666668" type="curve" smooth="yes"/>
      <point x="624.4399999999999" y="994.7466666666667" type="line" smooth="yes"/>
      <point x="624.4399999999999" y="904.9466666666667"/>
      <point x="545.76" y="844.9200000000001"/>
      <point x="428.4533333333333" y="844.9200000000001" type="curve" smooth="yes"/>
      <point x="318.28" y="844.9200000000001"/>
      <point x="278.76" y="877.1866666666667"/>
      <point x="278.76" y="948.2266666666667" type="curve" smooth="yes"/>
      <point x="278.76" y="1031.0133333333333"/>
      <point x="332.0266666666667" y="1076.0533333333333"/>
    </contour>
  </outline>
</glyph>
<glyph name="degree" format="2">
  <advance width="818.5466666666666"/>
  <unicode hex="00B0"/>
  <outline>
    <contour>
      <point x="408.7733333333333" y="1434.0" type="curve" smooth="yes"/>
      <point x="236.7733333333333" y="1434.0"/>
      <point x="112.77333333333334" y="1313.0"/>
      <point x="112.77333333333334" y="1140.0" type="curve" smooth="yes"/>
      <point x="112.77333333333334" y="967.0"/>
      <point x="236.7733333333333" y="846.0"/>
      <point x="408.7733333333333" y="846.0" type="curve" smooth="yes"/>
      <point x="581.7733333333333" y="846.0"/>
      <point x="705.7733333333333" y="967.0"/>
      <point x="705.7733333333333" y="1140.0" type="curve" smooth="yes"/>
      <point x="705.7733333333333" y="1313.0"/>
      <point x="581.7733333333333" y="1434.0"/>
    </contour>
    <contour>
      <point x="408.7733333333333" y="928.1466666666668" type="curve" smooth="yes"/>
      <point x="288.21333333333337" y="928.1466666666668"/>
      <point x="200.92" y="1012.8133333333334"/>
      <point x="200.92" y="1140.0" type="curve" smooth="yes"/>
      <point x="200.92" y="1267.1866666666667"/>
      <point x="288.21333333333337" y="1351.8533333333335"/>
      <point x="408.7733333333333" y="1351.8533333333335" type="curve" smooth="yes"/>
      <point x="530.3333333333333" y="1351.8533333333335"/>
      <point x="616.6266666666668" y="1267.1866666666667"/>
      <point x="616.6266666666668" y="1140.0" type="curve" smooth="yes"/>
      <point x="616.6266666666668" y="1012.8133333333334"/>
      <point x="530.3333333333333" y="928.1466666666668"/>
    </contour>
  </outline>
</glyph>
<glyph name="plusminus" format="2">
  <advance width="1140.0"/>
  <unicode hex="00B1"/>
  <outline>
    <contour>
      <point x="519.8266666666667" y="1027.36" type="line"/>
      <point x="519.8266666666667" y="188.56" type="line"/>
      <point x="620.5466666666667" y="188.56" type="line"/>
      <point x="620.5466666666667" y="1027.36" type="line"/>
    </contour>
    <contour>
      <point x="150.78666666666666" y="658.32" type="line"/>
      <point x="150.78666666666666" y="557.6" type="line"/>
      <point x="989.5866666666667" y="557.6" type="line"/>
      <point x="989.5866666666667" y="658.32" type="line"/>
    </contour>
    <contour>
      <point x="150.78666666666666" y="100.72" type="line"/>
      <point x="150.78666666666666" y="0.0" type="line"/>
      <point x="989.5866666666667" y="0.0" type="line"/>
      <point x="989.5866666666667" y="100.72" type="line"/>
    </contour>
  </outline>
</glyph>
<glyph name="paragraph" format="2">
  <advance width="1359.08"/>
  <unicode hex="00B6"/>
  <outline>
    <contour>
      <point x="719.28" y="1414.0" type="line"/>
      <point x="497.05333333333334" y="1414.0" type="line" smooth="yes"/>
      <point x="174.12" y="1414.0"/>
      <point x="64.88" y="1299.8799999999999"/>
      <point x="64.88" y="1079.5066666666667" type="curve" smooth="yes"/>
      <point x="64.88" y="852.2533333333333"/>
      <point x="186.88" y="737.6266666666667"/>
      <point x="438.0133333333333" y="737.6266666666667" type="curve" smooth="yes"/>
      <point x="719.28" y="737.6266666666667" type="line"/>
    </contour>
    <contour>
      <point x="761.6133333333333" y="-222.62666666666667" type="line"/>
      <point x="761.6133333333333" y="1329.96" type="line"/>
      <point x="1003.36" y="1329.96" type="line"/>
      <point x="1003.36" y="1414.0" type="line"/>
      <point x="668.84" y="1414.0" type="line"/>
      <point x="668.84" y="-222.62666666666667" type="line"/>
    </contour>
    <contour>
      <point x="1056.1733333333332" y="-222.62666666666667" type="line"/>
      <point x="1056.1733333333332" y="1328.3333333333335" type="line"/>
      <point x="1271.2" y="1348.0666666666666" type="line"/>
      <point x="1271.2" y="1414.0" type="line"/>
      <point x="963.4" y="1414.0" type="line"/>
      <point x="963.4" y="-222.62666666666667" type="line"/>
    </contour>
  </outline>
</glyph>
<glyph name="ordmasculine" format="2">
  <advance width="1009.72"/>
  <unicode hex="00BA"/>
  <outline>
    <contour>
      <point x="179.41333333333333" y="532.56" type="line"/>
      <point x="830.3066666666667" y="532.56" type="line"/>
      <point x="830.3066666666667" y="625.0666666666667" type="line"/>
      <point x="179.41333333333333" y="625.0666666666667" type="line"/>
    </contour>
    <contour>
      <point x="498.73333333333335" y="854.7733333333333" type="curve" smooth="yes"/>
      <point x="346.29333333333335" y="854.7733333333333"/>
      <point x="267.1333333333333" y="950.7037362637363"/>
      <point x="267.1333333333333" y="1102.6266666666668" type="curve" smooth="yes"/>
      <point x="267.1333333333333" y="1261.6107984790874"/>
      <point x="357.18666666666667" y="1343.4666666666667"/>
      <point x="510.9866666666667" y="1343.4666666666667" type="curve" smooth="yes"/>
      <point x="663.4266666666666" y="1343.4666666666667"/>
      <point x="742.5866666666667" y="1247.536263736264"/>
      <point x="742.5866666666667" y="1095.6133333333335" type="curve" smooth="yes"/>
      <point x="742.5866666666667" y="936.6292015209126"/>
      <point x="652.5333333333333" y="854.7733333333333"/>
    </contour>
    <contour>
      <point x="500.24" y="768.0" type="curve" smooth="yes"/>
      <point x="721.2" y="768.0"/>
      <point x="848.0666666666667" y="880.0"/>
      <point x="848.0666666666667" y="1098.8666666666668" type="curve" smooth="yes"/>
      <point x="848.0666666666667" y="1311.36"/>
      <point x="715.0666666666667" y="1430.24"/>
      <point x="509.48" y="1430.24" type="curve" smooth="yes"/>
      <point x="288.52" y="1430.24"/>
      <point x="161.65333333333334" y="1318.24"/>
      <point x="161.65333333333334" y="1099.3733333333334" type="curve" smooth="yes"/>
      <point x="161.65333333333334" y="886.88"/>
      <point x="294.6533333333333" y="768.0"/>
    </contour>
  </outline>
</glyph>
<glyph name="AE" format="2">
  <advance width="2272.08"/>
  <unicode hex="00C6"/>
  <anchor x="1195.9466666666667" y="1414.0" name="UCtop"/>
  <anchor x="1140.8" y="0.0" name="bottom"/>
  <outline>
    <contour>
      <point x="547.5066666666668" y="508.4266666666667" type="line"/>
      <point x="1172.2133333333334" y="508.4266666666667" type="line"/>
      <point x="1172.2133333333334" y="609.2800000000001" type="line"/>
      <point x="547.5066666666668" y="609.2800000000001" type="line"/>
    </contour>
    <contour>
      <point x="1079.7466666666667" y="1414.0" type="line"/>
      <point x="189.92000000000002" y="98.36" type="line"/>
      <point x="4.373333333333333" y="71.53333333333333" type="line"/>
      <point x="4.373333333333333" y="0.0" type="line"/>
      <point x="506.88000000000005" y="0.0" type="line"/>
      <point x="506.88000000000005" y="71.53333333333333" type="line"/>
      <point x="309.6" y="97.73333333333333" type="line"/>
      <point x="1160.8533333333335" y="1358.56" type="line"/>
      <point x="1160.8533333333332" y="1414.0" type="line"/>
    </contour>
    <contour>
      <point x="786.4533333333334" y="1342.4666666666667" type="line"/>
      <point x="1074.0533333333335" y="1303.2933333333333" type="line"/>
      <point x="1094.2133333333334" y="1414.0" type="line"/>
      <point x="786.4533333333334" y="1414.0" type="line"/>
    </contour>
    <contour>
      <point x="1803.7733333333333" y="988.7466666666667" type="line"/>
      <point x="1723.5333333333333" y="988.7466666666667" type="line"/>
      <point x="1697.76" y="785.5466666666667" type="line"/>
      <point x="1205.2666666666667" y="785.5466666666667" type="line"/>
      <point x="1205.2666666666667" y="684.6933333333333" type="line"/>
      <point x="1697.76" y="684.6933333333333" type="line"/>
      <point x="1723.5333333333333" y="478.12" type="line"/>
      <point x="1803.7733333333333" y="478.12" type="line"/>
      <point x="1803.7733333333333" y="733.12" type="line"/>
    </contour>
    <contour>
      <point x="2117.173333333333" y="1058.2933333333333" type="line"/>
      <point x="2121.56" y="1484.0" type="line"/>
      <point x="2050.04" y="1484.0" type="line"/>
      <point x="1996.2266666666667" y="1414.0" type="line"/>
      <point x="1170.8" y="1414.0" type="line"/>
      <point x="1170.8" y="1313.1466666666665" type="line"/>
      <point x="2035.3333333333335" y="1313.1466666666665" type="line"/>
      <point x="1977.64" y="1379.6" type="line"/>
      <point x="2026.6799999999998" y="1058.2933333333333" type="line"/>
    </contour>
    <contour>
      <point x="1970.4" y="53.2" type="line"/>
      <point x="2039.0266666666669" y="100.85333333333332" type="line"/>
      <point x="1170.8" y="100.85333333333332" type="line"/>
      <point x="1170.8" y="0.0" type="line"/>
      <point x="1989.0933333333335" y="0.0" type="line"/>
      <point x="2012.92" y="-72.0" type="line"/>
      <point x="2101.693333333333" y="-72.0" type="line"/>
      <point x="2175.1866666666665" y="399.4133333333333" type="line"/>
      <point x="2088.1866666666665" y="399.41333333333336" type="line"/>
    </contour>
    <contour>
      <point x="918.1466666666666" y="0.0" type="line"/>
      <point x="1261.3333333333333" y="0.0" type="line"/>
      <point x="1261.3333333333333" y="1414.0" type="line"/>
      <point x="1129.8133333333333" y="1414.0" type="line"/>
      <point x="1129.8133333333333" y="98.36" type="line"/>
      <point x="918.1466666666666" y="71.53333333333333" type="line"/>
    </contour>
  </outline>
</glyph>
<glyph name="multiply" format="2">
  <advance width="1140.0"/>
  <unicode hex="00D7"/>
  <outline>
    <contour>
      <point x="204.38666666666668" y="219.70666666666665" type="line"/>
      <point x="276.0266666666667" y="148.0666666666667" type="line"/>
      <point x="935.6133333333333" y="807.6533333333333" type="line"/>
      <point x="863.9733333333334" y="879.2933333333334" type="line"/>
    </contour>
    <contour>
      <point x="204.38666666666668" y="807.6533333333333" type="line"/>
      <point x="863.9733333333334" y="148.0666666666667" type="line"/>
      <point x="935.6133333333333" y="219.70666666666665" type="line"/>
      <point x="276.0266666666667" y="879.2933333333334" type="line"/>
    </contour>
  </outline>
</glyph>
<glyph name="germandbls" format="2">
  <advance width="1436.1599999999999"/>
  <unicode hex="00DF"/>
  <outline>
    <contour>
      <point x="274.4" y="1077.3333333333333" type="curve" smooth="yes"/>
      <point x="274.4" y="90.88" type="line"/>
      <point x="107.4" y="65.91999999999999" type="line"/>
      <point x="107.4" y="0.0" type="line"/>
      <point x="562.3199999999999" y="0.0" type="line"/>
      <point x="562.3199999999999" y="65.91999999999999" type="line"/>
      <point x="395.32" y="90.88" type="line"/>
      <point x="395.32" y="1095.0666666666668" type="line" smooth="yes"/>
      <point x="395.32" y="1312.3066666666666"/>
      <point x="528.3169230769231" y="1397.3733333333334"/>
      <point x="770.3066666666667" y="1397.3733333333334" type="curve" smooth="yes"/>
      <point x="977.6008219178082" y="1397.3733333333334"/>
      <point x="1057.7466666666667" y="1311.0933333333335"/>
      <point x="1057.7466666666667" y="1209.1066666666666" type="curve" smooth="yes"/>
      <point x="1057.7466666666667" y="1016.8533333333335"/>
      <point x="740.6266666666667" y="998.7733333333334"/>
      <point x="740.6266666666667" y="766.9066666666666" type="curve" smooth="yes"/>
      <point x="740.6266666666667" y="431.93333333333334"/>
      <point x="1234.8266666666666" y="599.9733333333334"/>
      <point x="1234.8266666666666" y="282.5066666666667" type="curve" smooth="yes"/>
      <point x="1234.8266666666666" y="142.04000000000002"/>
      <point x="1152.7866666666669" y="70.88"/>
      <point x="964.4933333333333" y="70.88" type="curve" smooth="yes"/>
      <point x="884.2133333333334" y="70.88"/>
      <point x="794.9333333333334" y="84.14666666666668"/>
      <point x="733.1866666666666" y="112.53333333333333" type="curve"/>
      <point x="817.1066666666667" y="43.25333333333333" type="line"/>
      <point x="728.3866666666667" y="321.24" type="line"/>
      <point x="645.04" y="321.24" type="line"/>
      <point x="679.8933333333333" y="36.0" type="line"/>
      <point x="751.2666666666667" y="0.7466666666666668"/>
      <point x="867.7466666666667" y="-16.0"/>
      <point x="957.6133333333333" y="-16.0" type="curve" smooth="yes"/>
      <point x="1217.8" y="-16.0"/>
      <point x="1347.2666666666667" y="95.97333333333334"/>
      <point x="1347.2666666666667" y="305.08" type="curve" smooth="yes"/>
      <point x="1347.2666666666667" y="691.7066666666667"/>
      <point x="853.2" y="555.12"/>
      <point x="853.2" y="791.4666666666667" type="curve" smooth="yes"/>
      <point x="853.2" y="975.7866666666666"/>
      <point x="1184.28" y="995.5066666666667"/>
      <point x="1184.28" y="1227.7866666666669" type="curve" smooth="yes"/>
      <point x="1184.28" y="1382.9866666666667"/>
      <point x="1066.9757710064634" y="1484.0"/>
      <point x="783.7866666666666" y="1484.0" type="curve" smooth="yes"/>
      <point x="491.9229254571027" y="1484.0"/>
      <point x="274.4" y="1357.9066666666668"/>
    </contour>
    <contour>
      <point x="291.02666666666664" y="1035.4666666666667" type="line"/>
      <point x="60.346666666666664" y="993.8" type="line"/>
      <point x="60.346666666666664" y="949.2266666666667" type="line"/>
      <point x="276.28" y="912.6800000000001" type="line"/>
    </contour>
  </outline>
</glyph>
<glyph name="eth" format="2">
  <advance width="1269.2"/>
  <unicode hex="00F0"/>
  <outline>
    <contour>
      <point x="619.6133333333333" y="-20.0" type="curve" smooth="yes"/>
      <point x="946.0933333333334" y="-20.0"/>
      <point x="1143.0666666666666" y="160.6"/>
      <point x="1143.0666666666666" y="536.4666666666667" type="curve" smooth="yes"/>
      <point x="1143.0666666666666" y="1003.12"/>
      <point x="954.08" y="1300.1466666666665"/>
      <point x="306.8266666666667" y="1471.4666666666667" type="curve"/>
      <point x="276.9866666666667" y="1394.2" type="line"/>
      <point x="713.2430494851742" y="1277.9516781273264"/>
      <point x="996.9866666666667" y="1044.8"/>
      <point x="1016.4000000000001" y="657.3866666666668" type="curve"/>
      <point x="1030.2666666666667" y="655.52" type="line"/>
      <point x="1017.2266666666667" y="820.6933333333333"/>
      <point x="879.32" y="1012.0"/>
      <point x="615.56" y="1012.0" type="curve" smooth="yes"/>
      <point x="307.74666666666667" y="1012.0"/>
      <point x="110.77333333333334" y="826.92"/>
      <point x="110.77333333333334" y="497.25333333333333" type="curve" smooth="yes"/>
      <point x="110.77333333333334" y="173.60000000000002"/>
      <point x="309.90666666666664" y="-20.0"/>
    </contour>
    <contour>
      <point x="616.36" y="76.10666666666667" type="curve" smooth="yes"/>
      <point x="363.0133333333333" y="76.10666666666667"/>
      <point x="237.44" y="242.07175572519083"/>
      <point x="237.44" y="509.6" type="curve" smooth="yes"/>
      <point x="237.44" y="781.4144061302682"/>
      <point x="385.40000000000003" y="915.6400000000001"/>
      <point x="637.48" y="915.6400000000001" type="curve" smooth="yes"/>
      <point x="890.8266666666666" y="915.6400000000001"/>
      <point x="1016.4" y="749.9307614213197"/>
      <point x="1016.4" y="482.4" type="curve" smooth="yes"/>
      <point x="1016.4" y="209.96188280499518"/>
      <point x="868.4399999999999" y="76.10666666666667"/>
    </contour>
    <contour>
      <point x="415.84" y="1064.08" type="line"/>
      <point x="920.2533333333333" y="1417.1866666666667" type="line"/>
      <point x="872.8" y="1484.0" type="line"/>
      <point x="368.38666666666666" y="1130.8933333333334" type="line"/>
    </contour>
  </outline>
</glyph>
<glyph name="thorn" format="2">
  <advance width="1271.7733333333333"/>
  <unicode hex="00FE"/>
  <outline>
    <contour>
      <point x="190.65333333333334" y="1331.5733333333335" type="curve"/>
      <point x="190.65333333333334" y="-354.12" type="line"/>
      <point x="21.78666666666667" y="-379.08" type="line"/>
      <point x="21.78666666666667" y="-445.0" type="line"/>
      <point x="499.6933333333333" y="-445.0" type="line"/>
      <point x="499.6933333333333" y="-379.08" type="line"/>
      <point x="311.2" y="-354.8666666666667" type="line"/>
      <point x="311.2" y="288.5466666666667" type="line"/>
      <point x="297.96" y="288.5466666666667" type="line"/>
      <point x="304.82666666666665" y="115.24000000000001"/>
      <point x="434.91999999999996" y="-20.0"/>
      <point x="657.88" y="-20.0" type="curve" smooth="yes"/>
      <point x="937.8666666666667" y="-20.0"/>
      <point x="1160.0" y="182.58666666666664"/>
      <point x="1160.0" y="548.8666666666667" type="curve" smooth="yes"/>
      <point x="1160.0" y="869.5333333333333"/>
      <point x="1000.6533333333333" y="1044.0"/>
      <point x="681.5066666666667" y="1044.0" type="curve" smooth="yes"/>
      <point x="595.8933333333333" y="1044.0"/>
      <point x="516.6133333333333" y="1019.9066666666666"/>
      <point x="262.88" y="890.24" type="curve"/>
      <point x="262.88" y="822.4666666666667" type="line"/>
      <point x="411.8666666666667" y="904.68"/>
      <point x="528.8666666666667" y="935.8133333333334"/>
      <point x="646.24" y="935.8133333333334" type="curve" smooth="yes"/>
      <point x="902.2266666666667" y="935.8133333333334"/>
      <point x="1030.2266666666667" y="787.4799999999999"/>
      <point x="1030.2266666666667" y="532.5866666666667" type="curve" smooth="yes"/>
      <point x="1030.2266666666667" y="236.42666666666665"/>
      <point x="878.7733333333333" y="69.24000000000001"/>
      <point x="637.56" y="69.24000000000001" type="curve" smooth="yes"/>
      <point x="439.4533333333333" y="69.24000000000001"/>
      <point x="311.5733333333333" y="180.32"/>
      <point x="311.5733333333333" y="428.81333333333333" type="curve" smooth="yes"/>
      <point x="311.5733333333333" y="1348.8133333333333" type="line"/>
      <point x="325.3066666666667" y="1484.0" type="line"/>
      <point x="298.9733333333333" y="1484.0" type="line"/>
      <point x="-24.84" y="1434.0533333333333" type="line"/>
      <point x="-24.84" y="1380.1200000000001" type="line"/>
      <point x="53.16" y="1362.5859190031151"/>
      <point x="164.65333333333334" y="1337.2935825545171"/>
    </contour>
  </outline>
</glyph>
<glyph name="Eogonek" format="2">
  <advance width="1460.1733333333334"/>
  <unicode hex="0118"/>
  <outline>
    <contour>
      <point x="991.8666666666667" y="988.7466666666667" type="line"/>
      <point x="911.6266666666667" y="988.7466666666667" type="line"/>
      <point x="885.8533333333332" y="785.5466666666667" type="line"/>
      <point x="393.36" y="785.5466666666667" type="line"/>
      <point x="393.36" y="684.6933333333333" type="line"/>
      <point x="885.8533333333332" y="684.6933333333333" type="line"/>
      <point x="911.6266666666667" y="478.12" type="line"/>
      <point x="991.8666666666667" y="478.12" type="line"/>
      <point x="991.8666666666667" y="733.12" type="line"/>
    </contour>
    <contour>
      <point x="1305.2666666666667" y="1058.2933333333333" type="line"/>
      <point x="1309.6533333333334" y="1484.0" type="line"/>
      <point x="1238.1333333333334" y="1484.0" type="line"/>
      <point x="1184.32" y="1414.0" type="line"/>
      <point x="358.8933333333333" y="1414.0" type="line"/>
      <point x="358.8933333333333" y="1313.1466666666665" type="line"/>
      <point x="1223.4266666666665" y="1313.1466666666665" type="line"/>
      <point x="1165.7333333333333" y="1379.6" type="line"/>
      <point x="1214.7733333333333" y="1058.2933333333333" type="line"/>
    </contour>
    <contour>
      <point x="1158.4933333333333" y="53.2" type="line"/>
      <point x="1227.1200000000001" y="100.85333333333332" type="line"/>
      <point x="358.8933333333333" y="100.85333333333332" type="line"/>
      <point x="358.8933333333333" y="0.0" type="line"/>
      <point x="1177.1866666666667" y="0.0" type="line"/>
      <point x="1201.0133333333333" y="-72.0" type="line"/>
      <point x="1289.7866666666666" y="-72.0" type="line"/>
      <point x="1363.28" y="399.4133333333333" type="line"/>
      <point x="1276.28" y="399.41333333333336" type="line"/>
    </contour>
    <contour>
      <point x="106.24" y="0.0" type="line"/>
      <point x="449.4266666666667" y="0.0" type="line"/>
      <point x="449.4266666666667" y="1414.0" type="line"/>
      <point x="106.24" y="1414.0" type="line"/>
      <point x="106.24" y="1342.4666666666667" type="line"/>
      <point x="317.9066666666667" y="1315.64" type="line"/>
      <point x="317.9066666666667" y="98.36" type="line"/>
      <point x="106.24" y="71.53333333333333" type="line"/>
    </contour>
    <contour>
      <point x="1117.8933333333332" y="-80.88" type="curve" smooth="yes"/>
      <point x="1191.48" y="16.799999999999997" type="line"/>
      <point x="1123.8933333333334" y="16.799999999999997" type="line"/>
      <point x="1018.8" y="-106.94666666666667" type="line" smooth="yes"/>
      <point x="926.9733333333334" y="-214.17333333333335"/>
      <point x="913.6133333333333" y="-268.5466666666667"/>
      <point x="913.6133333333333" y="-326.53333333333336" type="curve" smooth="yes"/>
      <point x="913.6133333333333" y="-403.0"/>
      <point x="961.9866666666667" y="-465.0"/>
      <point x="1070.4533333333334" y="-465.0" type="curve" smooth="yes"/>
      <point x="1133.0533333333333" y="-465.0"/>
      <point x="1175.3066666666666" y="-453.0133333333333"/>
      <point x="1242.7866666666669" y="-402.7866666666667" type="curve"/>
      <point x="1242.7866666666666" y="-347.2" type="line"/>
      <point x="1190.1599999999999" y="-376.70666666666665"/>
      <point x="1161.3999999999999" y="-383.58666666666664"/>
      <point x="1122.1466666666668" y="-383.58666666666664" type="curve" smooth="yes"/>
      <point x="1058.6266666666666" y="-383.58666666666664"/>
      <point x="1021.6133333333333" y="-346.5733333333333"/>
      <point x="1021.6133333333333" y="-285.18666666666667" type="curve" smooth="yes"/>
      <point x="1021.6133333333333" y="-232.8"/>
      <point x="1042.4933333333333" y="-179.52"/>
    </contour>
  </outline>
</glyph>
<glyph name="eogonek" format="2">
  <advance width="1138.48"/>
  <unicode hex="0119"/>
  <outline>
    <contour>
      <point x="1010.9466666666667" y="100.18666666666667" type="line"/>
      <point x="1010.9466666666667" y="174.85333333333332" type="line"/>
      <point x="891.3733333333332" y="118.42666666666665"/>
      <point x="786.64" y="89.45333333333333"/>
      <point x="650.88" y="89.45333333333333" type="curve" smooth="yes"/>
      <point x="367.34666666666664" y="89.45333333333333"/>
      <point x="233.82666666666665" y="216.10666666666668"/>
      <point x="233.82666666666665" y="526.6800000000001" type="curve" smooth="yes"/>
      <point x="233.82666666666665" y="821.3066666666666"/>
      <point x="376.1733333333333" y="954.7600000000001"/>
      <point x="593.3866666666667" y="954.7600000000001" type="curve" smooth="yes"/>
      <point x="801.04" y="954.7600000000001"/>
      <point x="898.5600000000001" y="821.0"/>
      <point x="896.6666666666667" y="583.08" type="curve"/>
      <point x="950.28" y="604.08" type="line"/>
      <point x="212.86666666666667" y="604.08" type="line"/>
      <point x="221.37333333333333" y="513.2" type="line"/>
      <point x="1027.72" y="513.2" type="line"/>
      <point x="1027.8533333333332" y="862.8000000000001"/>
      <point x="904.2133333333334" y="1044.0"/>
      <point x="594.0" y="1044.0" type="curve" smooth="yes"/>
      <point x="306.7733333333333" y="1044.0"/>
      <point x="111.77333333333334" y="839.1466666666666"/>
      <point x="111.77333333333334" y="504.26666666666665" type="curve" smooth="yes"/>
      <point x="111.77333333333334" y="150.72"/>
      <point x="291.3466666666667" y="-20.0"/>
      <point x="601.4666666666667" y="-20.0" type="curve" smooth="yes"/>
      <point x="715.6666666666666" y="-20.0"/>
      <point x="811.3866666666667" y="0.8533333333333317"/>
      <point x="925.6666666666666" y="55.120000000000005" type="curve"/>
      <point x="916.1733333333333" y="65.98666666666666" type="line"/>
      <point x="828.1466666666668" y="-45.44" type="line" smooth="yes"/>
      <point x="719.04" y="-181.06666666666666"/>
      <point x="699.4399999999999" y="-247.42666666666668"/>
      <point x="699.4399999999999" y="-317.2933333333333" type="curve" smooth="yes"/>
      <point x="699.4399999999999" y="-408.64"/>
      <point x="756.3066666666666" y="-465.0"/>
      <point x="865.5066666666667" y="-465.0" type="curve" smooth="yes"/>
      <point x="933.36" y="-465.0"/>
      <point x="964.12" y="-451.76"/>
      <point x="1031.6" y="-402.7866666666667" type="curve"/>
      <point x="1031.6" y="-347.2" type="line"/>
      <point x="978.9733333333334" y="-376.70666666666665"/>
      <point x="950.2133333333334" y="-383.58666666666664"/>
      <point x="910.96" y="-383.58666666666664" type="curve" smooth="yes"/>
      <point x="841.8000000000001" y="-383.58666666666664"/>
      <point x="806.32" y="-350.18666666666667"/>
      <point x="806.32" y="-281.68" type="curve" smooth="yes"/>
      <point x="806.32" y="-231.32"/>
      <point x="830.0666666666667" y="-151.41333333333336"/>
      <point x="925.6266666666667" y="-19.72" type="curve" smooth="yes"/>
    </contour>
  </outline>
</glyph>
<glyph name="hbar" format="2">
  <advance width="1324.76"/>
  <unicode hex="0127"/>
  <outline>
    <contour>
      <point x="811.1733333333333" y="65.91999999999999" type="line"/>
      <point x="811.1733333333333" y="0.0" type="line"/>
      <point x="1263.1066666666666" y="0.0" type="line"/>
      <point x="1263.1066666666666" y="65.91999999999999" type="line"/>
      <point x="1095.7333333333333" y="90.88" type="line"/>
      <point x="1095.7333333333333" y="729.5333333333333" type="line" smooth="yes"/>
      <point x="1095.7333333333333" y="941.1466666666666"/>
      <point x="1003.76" y="1044.0"/>
      <point x="771.6266666666667" y="1044.0" type="curve" smooth="yes"/>
      <point x="637.48" y="1044.0"/>
      <point x="564.12" y="1017.8399999999999"/>
      <point x="342.9466666666667" y="870.4533333333333" type="curve"/>
      <point x="348.91999999999996" y="832.08" type="line"/>
      <point x="482.0533333333333" y="897.4266666666666"/>
      <point x="587.8" y="922.44"/>
      <point x="701.9733333333334" y="922.44" type="curve" smooth="yes"/>
      <point x="910.6933333333334" y="922.44"/>
      <point x="974.8133333333333" y="860.8"/>
      <point x="974.8133333333333" y="670.6666666666667" type="curve" smooth="yes"/>
      <point x="974.8133333333333" y="90.88" type="line"/>
    </contour>
    <contour>
      <point x="522.2" y="0.0" type="line"/>
      <point x="522.2" y="65.91999999999999" type="line"/>
      <point x="358.56" y="90.88" type="line"/>
      <point x="358.56" y="1348.8133333333333" type="line"/>
      <point x="372.29333333333335" y="1484.0" type="line"/>
      <point x="345.96" y="1484.0" type="line"/>
      <point x="34.09333333333333" y="1434.0533333333333" type="line"/>
      <point x="34.09333333333333" y="1380.1200000000001" type="line"/>
      <point x="101.26666666666667" y="1368.932585669782"/>
      <point x="213.88" y="1348.8669158878504"/>
      <point x="237.64" y="1344.64" type="curve"/>
      <point x="237.64" y="90.88" type="line"/>
      <point x="70.64" y="65.91999999999999" type="line"/>
      <point x="70.64" y="0.0" type="line"/>
    </contour>
    <contour>
      <point x="22.93333333333333" y="1145.72" type="line"/>
      <point x="695.0666666666667" y="1145.72" type="line"/>
      <point x="695.0666666666667" y="1232.5066666666667" type="line"/>
      <point x="22.93333333333333" y="1232.5066666666667" type="line"/>
    </contour>
  </outline>
</glyph>
<glyph name="Eng" format="2">
  <advance width="1721.1866666666665"/>
  <unicode hex="014A"/>
  <outline>
    <contour>
      <point x="1347.7866666666666" y="165.4933333333333" type="line"/>
      <point x="488.92" y="1414.0" type="line"/>
      <point x="108.48" y="1414.0" type="line"/>
      <point x="108.48" y="1342.4666666666667" type="line"/>
      <point x="317.15999999999997" y="1315.6399999999999" type="line"/>
      <point x="317.15999999999997" y="98.36" type="line"/>
      <point x="108.48" y="71.53333333333333" type="line"/>
      <point x="108.48" y="0.0" type="line"/>
      <point x="637.3866666666667" y="0.0" type="line"/>
      <point x="637.3866666666667" y="71.53333333333333" type="line"/>
      <point x="421.9866666666667" y="98.36" type="line"/>
      <point x="421.9866666666667" y="1331.84" type="line"/>
      <point x="394.52" y="1328.0800000000002" type="line"/>
      <point x="1344.4266666666667" y="-56.346666666666664" type="line"/>
    </contour>
    <contour>
      <point x="1425.7733333333333" y="-124.2" type="curve" smooth="yes"/>
      <point x="1425.7733333333333" y="1315.64" type="line"/>
      <point x="1634.4533333333331" y="1342.4666666666667" type="line"/>
      <point x="1634.4533333333331" y="1414.0" type="line"/>
      <point x="1105.5466666666666" y="1414.0" type="line"/>
      <point x="1105.5466666666666" y="1342.4666666666667" type="line"/>
      <point x="1320.9466666666667" y="1315.64" type="line"/>
      <point x="1320.9466666666667" y="-111.41333333333333" type="line" smooth="yes"/>
      <point x="1320.9466666666667" y="-295.36"/>
      <point x="1243.5333333333333" y="-362.78666666666663"/>
      <point x="1066.0400000000002" y="-362.78666666666663" type="curve" smooth="yes"/>
      <point x="972.1333333333333" y="-362.78666666666663"/>
      <point x="912.44" y="-287.8"/>
      <point x="881.6800000000001" y="-287.8" type="curve" smooth="yes"/>
      <point x="841.7066666666666" y="-287.8"/>
      <point x="817.9866666666667" y="-319.0"/>
      <point x="817.9866666666667" y="-355.8266666666667" type="curve" smooth="yes"/>
      <point x="817.9866666666667" y="-415.4133333333333"/>
      <point x="881.2266666666667" y="-465.0"/>
      <point x="1060.8133333333333" y="-465.0" type="curve" smooth="yes"/>
      <point x="1299.04" y="-465.0"/>
      <point x="1425.7733333333333" y="-355.62666666666667"/>
    </contour>
  </outline>
</glyph>
<glyph name="Tbar" format="2">
  <advance width="1464.7733333333333"/>
  <unicode hex="0166"/>
  <outline>
    <contour>
      <point x="362.70666666666665" y="675.1866666666666" type="line"/>
      <point x="1102.0666666666666" y="675.1866666666666" type="line"/>
      <point x="1102.0666666666666" y="765.7066666666667" type="line"/>
      <point x="362.70666666666665" y="765.7066666666667" type="line"/>
    </contour>
    <contour>
      <point x="666.6266666666667" y="1385.72" type="line"/>
      <point x="666.6266666666667" y="98.36" type="line"/>
      <point x="447.49333333333334" y="71.53333333333333" type="line"/>
      <point x="447.49333333333334" y="0.0" type="line"/>
      <point x="1017.28" y="0.0" type="line"/>
      <point x="1017.28" y="71.53333333333333" type="line"/>
      <point x="798.1466666666666" y="98.36" type="line"/>
      <point x="798.1466666666666" y="1385.72" type="line"/>
    </contour>
    <contour>
      <point x="1261.6" y="1313.1466666666665" type="line"/>
      <point x="1206.2266666666667" y="1343.6266666666668" type="line"/>
      <point x="1303.28" y="1008.9066666666666" type="line"/>
      <point x="1399.6399999999999" y="1008.9066666666666" type="line"/>
      <point x="1328.6533333333332" y="1491.4666666666667" type="line"/>
      <point x="1245.48" y="1491.4666666666667" type="line"/>
      <point x="1209.9733333333334" y="1395.3866666666668" type="line"/>
      <point x="1300.88" y="1414.0" type="line"/>
      <point x="176.42666666666668" y="1414.0" type="line"/>
      <point x="254.79999999999995" y="1395.3866666666668" type="line"/>
      <point x="219.29333333333332" y="1491.4666666666667" type="line"/>
      <point x="136.11999999999998" y="1491.4666666666667" type="line"/>
      <point x="65.13333333333333" y="1008.9066666666666" type="line"/>
      <point x="161.49333333333334" y="1008.9066666666666" type="line"/>
      <point x="258.5466666666667" y="1343.6266666666668" type="line"/>
      <point x="203.17333333333335" y="1313.1466666666665" type="line"/>
    </contour>
  </outline>
</glyph>
<glyph name="uni01EA" format="2">
  <advance width="1659.5333333333333"/>
  <unicode hex="01EA"/>
  <outline>
    <contour>
      <point x="824.32" y="1434.0" type="curve" smooth="yes"/>
      <point x="401.76" y="1434.0"/>
      <point x="129.65333333333334" y="1155.3066666666666"/>
      <point x="129.65333333333334" y="706.2533333333333" type="curve" smooth="yes"/>
      <point x="129.65333333333334" y="260.82666666666665"/>
      <point x="391.8533333333333" y="-20.0"/>
      <point x="835.2133333333334" y="-20.0" type="curve" smooth="yes"/>
      <point x="1257.7733333333333" y="-20.0"/>
      <point x="1529.8799999999999" y="258.6933333333333"/>
      <point x="1529.8799999999999" y="707.7466666666667" type="curve" smooth="yes"/>
      <point x="1529.8799999999999" y="1153.1733333333332"/>
      <point x="1267.68" y="1434.0"/>
    </contour>
    <contour>
      <point x="838.4533333333334" y="86.21333333333334" type="curve" smooth="yes"/>
      <point x="472.25333333333333" y="86.21333333333334"/>
      <point x="266.6666666666667" y="309.0933333333333"/>
      <point x="266.6666666666667" y="719.5733333333334" type="curve" smooth="yes"/>
      <point x="266.6666666666667" y="1099.96"/>
      <point x="454.9733333333333" y="1327.7866666666666"/>
      <point x="821.08" y="1327.7866666666666" type="curve" smooth="yes"/>
      <point x="1187.28" y="1327.7866666666666"/>
      <point x="1392.8666666666668" y="1104.9066666666665"/>
      <point x="1392.8666666666668" y="694.4266666666666" type="curve" smooth="yes"/>
      <point x="1392.8666666666668" y="314.04"/>
      <point x="1204.5600000000002" y="86.21333333333334"/>
    </contour>
    <contour>
      <point x="870.8133333333333" y="-80.13333333333334" type="curve" smooth="yes"/>
      <point x="925.28" y="16.799999999999997" type="line"/>
      <point x="857.6933333333334" y="16.799999999999997" type="line"/>
      <point x="774.8533333333332" y="-106.2" type="line" smooth="yes"/>
      <point x="700.4" y="-215.67999999999998"/>
      <point x="688.4000000000001" y="-268.5466666666667"/>
      <point x="688.4000000000001" y="-326.5333333333333" type="curve" smooth="yes"/>
      <point x="688.4000000000001" y="-403.0"/>
      <point x="736.7733333333333" y="-465.0"/>
      <point x="845.24" y="-465.0" type="curve" smooth="yes"/>
      <point x="907.84" y="-465.0"/>
      <point x="950.0933333333334" y="-453.0133333333333"/>
      <point x="1017.5733333333334" y="-402.7866666666667" type="curve"/>
      <point x="1017.5733333333333" y="-347.2" type="line"/>
      <point x="964.9466666666666" y="-376.70666666666665"/>
      <point x="936.1866666666666" y="-383.58666666666664"/>
      <point x="896.9333333333333" y="-383.58666666666664" type="curve" smooth="yes"/>
      <point x="833.4133333333333" y="-383.58666666666664"/>
      <point x="796.4" y="-346.5733333333333"/>
      <point x="796.4" y="-285.18666666666667" type="curve" smooth="yes"/>
      <point x="796.4" y="-232.8"/>
      <point x="813.5466666666667" y="-181.27999999999997"/>
    </contour>
  </outline>
</glyph>
<glyph name="uni0237" format="2">
  <advance width="561.2266666666667"/>
  <unicode hex="0237"/>
  <anchor x="255.79999999999998" y="1024.0" name="top"/>
  <anchor x="243.29333333333335" y="-445.0" name="bottom"/>
  <outline>
    <contour>
      <point x="248.28" y="883.3733333333333" type="curve"/>
      <point x="248.28" y="-15.146666666666668" type="line" smooth="yes"/>
      <point x="248.28" y="-126.53333333333333"/>
      <point x="227.37333333333333" y="-164.97333333333333"/>
      <point x="13.42666666666667" y="-408.09333333333336" type="curve"/>
      <point x="68.73333333333333" y="-465.0" type="line"/>
      <point x="334.9733333333333" y="-208.34666666666666"/>
      <point x="369.2" y="-155.4933333333333"/>
      <point x="369.2" y="-10.373333333333335" type="curve" smooth="yes"/>
      <point x="369.2" y="893.9466666666667" type="line"/>
      <point x="380.06666666666666" y="1044.0" type="line"/>
      <point x="347.76000000000005" y="1044.0" type="line"/>
      <point x="54.74666666666667" y="982.48" type="line"/>
      <point x="54.74666666666667" y="935.2666666666667" type="line"/>
      <point x="115.74666666666667" y="918.3661629238705"/>
      <point x="226.28" y="889.4685969782762"/>
    </contour>
  </outline>
</glyph>
<glyph name="tildecomb" format="2">
  <unicode hex="0303"/>
  <anchor x="0.0" y="1024.0" name="_top"/>
  <anchor x="0.0" y="1387.0" name="top"/>
  <outline>
    <contour>
      <point x="299.4266666666666" y="1444.1066666666666" type="curve"/>
      <point x="218.29333333333335" y="1444.1066666666666" type="line"/>
      <point x="189.7733333333333" y="1276.76"/>
      <point x="168.89333333333332" y="1251.8799999999999"/>
      <point x="123.88" y="1251.8799999999999" type="curve" smooth="yes"/>
      <point x="46.48" y="1251.8799999999999"/>
      <point x="-20.746666666666666" y="1452.24"/>
      <point x="-142.13333333333333" y="1452.24" type="curve" smooth="yes"/>
      <point x="-231.32" y="1452.24"/>
      <point x="-284.56" y="1403.12"/>
      <point x="-318.32" y="1157.8933333333334" type="curve"/>
      <point x="-237.18666666666667" y="1157.8933333333334" type="line"/>
      <point x="-208.66666666666666" y="1325.24"/>
      <point x="-187.78666666666666" y="1350.1200000000001"/>
      <point x="-142.77333333333334" y="1350.1200000000001" type="curve" smooth="yes"/>
      <point x="-65.37333333333333" y="1350.1200000000001"/>
      <point x="1.8533333333333353" y="1149.76"/>
      <point x="123.24000000000001" y="1149.76" type="curve" smooth="yes"/>
      <point x="212.42666666666665" y="1149.76"/>
      <point x="265.66666666666663" y="1198.88"/>
    </contour>
  </outline>
</glyph>
<glyph name="uni0307" format="2">
  <unicode hex="0307"/>
  <anchor x="0.0" y="1024.0" name="_top"/>
  <anchor x="0.0" y="1387.0" name="top"/>
  <anchor x="0.0" y="1301.0" name="_mid"/>
  <outline>
    <contour>
      <point x="0.0" y="1202.6799999999998" type="curve" smooth="yes"/>
      <point x="70.54666666666667" y="1202.6799999999998"/>
      <point x="111.14666666666668" y="1237.1599999999999"/>
      <point x="111.14666666666668" y="1303.0" type="curve" smooth="yes"/>
      <point x="111.14666666666668" y="1369.2133333333334"/>
      <point x="70.54666666666667" y="1399.32"/>
      <point x="0.0" y="1399.32" type="curve" smooth="yes"/>
      <point x="-70.54666666666667" y="1399.32"/>
      <point x="-111.14666666666668" y="1369.2133333333334"/>
      <point x="-111.14666666666668" y="1303.0" type="curve" smooth="yes"/>
      <point x="-111.14666666666668" y="1237.1599999999999"/>
      <point x="-70.54666666666667" y="1202.6799999999998"/>
    </contour>
  </outline>
</glyph>
<glyph name="uni0308" format="2">
  <unicode hex="0308"/>
  <anchor x="0.0" y="1024.0" name="_top"/>
  <anchor x="0.0" y="1387.0" name="top"/>
  <outline>
    <contour>
      <point x="-211.21333333333334" y="1204.1733333333332" type="curve" smooth="yes"/>
      <point x="-145.89333333333335" y="1204.1733333333332"/>
      <point x="-107.90666666666667" y="1238.28"/>
      <point x="-107.90666666666667" y="1303.0" type="curve" smooth="yes"/>
      <point x="-107.90666666666667" y="1368.0933333333332"/>
      <point x="-145.89333333333335" y="1397.8266666666666"/>
      <point x="-211.21333333333334" y="1397.8266666666666" type="curve" smooth="yes"/>
      <point x="-276.15999999999997" y="1397.8266666666666"/>
      <point x="-314.52" y="1368.0933333333332"/>
      <point x="-314.52" y="1303.0" type="curve" smooth="yes"/>
      <point x="-314.52" y="1238.28"/>
      <point x="-276.15999999999997" y="1204.1733333333332"/>
    </contour>
    <contour>
      <point x="211.21333333333334" y="1204.1733333333332" type="curve" smooth="yes"/>
      <point x="276.15999999999997" y="1204.1733333333332"/>
      <point x="314.52" y="1238.28"/>
      <point x="314.52" y="1303.0" type="curve" smooth="yes"/>
      <point x="314.52" y="1368.0933333333332"/>
      <point x="276.15999999999997" y="1397.8266666666666"/>
      <point x="211.21333333333334" y="1397.8266666666666" type="curve" smooth="yes"/>
      <point x="145.89333333333335" y="1397.8266666666666"/>
      <point x="107.90666666666667" y="1368.0933333333332"/>
      <point x="107.90666666666667" y="1303.0" type="curve" smooth="yes"/>
      <point x="107.90666666666667" y="1238.28"/>
      <point x="145.89333333333335" y="1204.1733333333332"/>
    </contour>
  </outline>
</glyph>
<glyph name="uni0324" format="2">
  <unicode hex="0324"/>
  <anchor x="0.0" y="0.0" name="_bottom"/>
  <anchor x="0.0" y="-465.0" name="bottom"/>
  <outline>
    <contour>
      <point x="-211.21333333333334" y="-314.82666666666665" type="curve" smooth="yes"/>
      <point x="-145.89333333333335" y="-314.82666666666665"/>
      <point x="-107.90666666666667" y="-280.71999999999997"/>
      <point x="-107.90666666666667" y="-216.0" type="curve" smooth="yes"/>
      <point x="-107.90666666666667" y="-150.90666666666667"/>
      <point x="-145.89333333333335" y="-121.17333333333335"/>
      <point x="-211.21333333333334" y="-121.17333333333335" type="curve" smooth="yes"/>
      <point x="-276.15999999999997" y="-121.17333333333335"/>
      <point x="-314.52" y="-150.90666666666667"/>
      <point x="-314.52" y="-216.0" type="curve" smooth="yes"/>
      <point x="-314.52" y="-280.71999999999997"/>
      <point x="-276.15999999999997" y="-314.82666666666665"/>
    </contour>
    <contour>
      <point x="211.21333333333334" y="-314.82666666666665" type="curve" smooth="yes"/>
      <point x="276.15999999999997" y="-314.82666666666665"/>
      <point x="314.52" y="-280.71999999999997"/>
      <point x="314.52" y="-216.0" type="curve" smooth="yes"/>
      <point x="314.52" y="-150.90666666666667"/>
      <point x="276.15999999999997" y="-121.17333333333335"/>
      <point x="211.21333333333334" y="-121.17333333333335" type="curve" smooth="yes"/>
      <point x="145.89333333333335" y="-121.17333333333335"/>
      <point x="107.90666666666667" y="-150.90666666666667"/>
      <point x="107.90666666666667" y="-216.0" type="curve" smooth="yes"/>
      <point x="107.90666666666667" y="-280.71999999999997"/>
      <point x="145.89333333333335" y="-314.82666666666665"/>
    </contour>
  </outline>
</glyph>
<glyph name="uni0327" format="2">
  <unicode hex="0327"/>
  <anchor x="0.0" y="0.0" name="_bottom"/>
  <anchor x="0.0" y="-465.0" name="bottom"/>
  <outline>
    <contour>
      <point x="-70.72" y="-465.0" type="curve" smooth="yes"/>
      <point x="72.48" y="-465.0"/>
      <point x="157.05333333333334" y="-395.85333333333335"/>
      <point x="157.05333333333334" y="-292.65333333333336" type="curve" smooth="yes"/>
      <point x="157.05333333333334" y="-217.29333333333332"/>
      <point x="119.18666666666667" y="-159.18666666666667"/>
      <point x="-67.12" y="-116.67999999999999" type="curve"/>
      <point x="-54.61333333333333" y="-160.97333333333333" type="line"/>
      <point x="66.54666666666667" y="8.586666666666666" type="line"/>
      <point x="-10.373333333333331" y="8.586666666666666" type="line"/>
      <point x="-147.9333333333333" y="-188.12" type="line"/>
      <point x="-147.9333333333333" y="-198.84" type="line"/>
      <point x="36.053333333333335" y="-235.85333333333332"/>
      <point x="60.54666666666667" y="-265.4933333333333"/>
      <point x="60.54666666666667" y="-316.76" type="curve" smooth="yes"/>
      <point x="60.54666666666667" y="-371.02666666666664"/>
      <point x="24.28" y="-405.68"/>
      <point x="-52.986666666666665" y="-405.68" type="curve" smooth="yes"/>
      <point x="-121.25333333333333" y="-405.68"/>
      <point x="-151.45333333333332" y="-346.33333333333337"/>
      <point x="-163.06666666666666" y="-346.33333333333337" type="curve" smooth="yes"/>
      <point x="-190.94666666666666" y="-346.33333333333337"/>
      <point x="-212.66666666666666" y="-368.2"/>
      <point x="-212.66666666666666" y="-396.04" type="curve" smooth="yes"/>
      <point x="-212.66666666666666" y="-435.88"/>
      <point x="-182.93333333333334" y="-465.0"/>
    </contour>
  </outline>
</glyph>
<glyph name="uni032E" format="2">
  <unicode hex="032E"/>
  <anchor x="0.0" y="0.0" name="_bottom"/>
  <anchor x="0.0" y="-465.0" name="bottom"/>
  <outline>
    <contour>
      <point x="0.0" y="-284.0" type="curve" smooth="yes"/>
      <point x="-131.26666666666665" y="-284.0"/>
      <point x="-188.65333333333334" y="-232.2266666666667"/>
      <point x="-226.66666666666666" y="-50.0" type="curve"/>
      <point x="-300.44" y="-50.0" type="line"/>
      <point x="-256.79999999999995" y="-310.88"/>
      <point x="-177.57333333333332" y="-384.1333333333333"/>
      <point x="0.0" y="-384.1333333333333" type="curve" smooth="yes"/>
      <point x="177.57333333333332" y="-384.1333333333333"/>
      <point x="256.79999999999995" y="-310.88"/>
      <point x="300.44" y="-50.0" type="curve"/>
      <point x="226.66666666666666" y="-50.0" type="line"/>
      <point x="188.65333333333334" y="-232.2266666666667"/>
      <point x="131.26666666666665" y="-284.0"/>
    </contour>
  </outline>
</glyph>
<glyph name="uni0331" format="2">
  <unicode hex="0331"/>
  <anchor x="0.0" y="0.0" name="_bottom"/>
  <anchor x="0.0" y="-465.0" name="bottom"/>
  <outline>
    <contour>
      <point x="-283.9333333333333" y="-267.94666666666666" type="line"/>
      <point x="283.9333333333333" y="-267.94666666666666" type="line"/>
      <point x="283.9333333333333" y="-177.0533333333333" type="line"/>
      <point x="-283.9333333333333" y="-177.0533333333333" type="line"/>
    </contour>
  </outline>
</glyph>
<glyph name="endash" format="2">
  <advance width="1069.6533333333334"/>
  <unicode hex="2013"/>
  <outline>
    <contour>
      <point x="124.82666666666665" y="567.6933333333334" type="line"/>
      <point x="124.82666666666665" y="476.3066666666667" type="line"/>
      <point x="944.8266666666667" y="476.3066666666667" type="line"/>
      <point x="944.8266666666667" y="567.6933333333334" type="line"/>
    </contour>
  </outline>
</glyph>
<glyph name="minute" format="2">
  <advance width="446.70666666666665"/>
  <unicode hex="2032"/>
  <outline>
    <contour>
      <point x="135.26666666666665" y="957.52" type="line"/>
      <point x="220.48000000000002" y="957.52" type="line"/>
      <point x="349.4266666666666" y="1382.2933333333335" type="line"/>
      <point x="349.4266666666666" y="1414.0" type="line"/>
      <point x="198.28" y="1414.0" type="line"/>
    </contour>
  </outline>
</glyph>
<glyph name="guilsinglright" format="2">
  <advance width="699.12"/>
  <unicode hex="203A"/>
  <outline>
    <contour>
      <point x="463.8533333333333" y="496.52000000000004" type="line"/>
      <point x="463.8533333333333" y="547.4799999999999" type="line"/>
      <point x="126.02666666666667" y="151.13333333333335" type="line"/>
      <point x="182.93333333333334" y="95.46666666666667" type="line"/>
      <point x="580.24" y="476.68" type="line"/>
      <point x="580.24" y="567.32" type="line"/>
      <point x="182.93333333333334" y="948.5333333333334" type="line"/>
      <point x="126.02666666666667" y="892.8666666666667" type="line"/>
    </contour>
  </outline>
</glyph>
<glyph name="fraction" format="2">
  <advance width="160.0"/>
  <unicode hex="2044"/>
  <outline>
    <contour>
      <point x="-463.1866666666666" y="0.0" type="line"/>
      <point x="-354.6933333333333" y="0.0" type="line"/>
      <point x="627.1866666666667" y="1414.0" type="line"/>
      <point x="518.6933333333334" y="1414.0" type="line"/>
    </contour>
  </outline>
</glyph>
<glyph name="zerosuperior" format="2">
  <advance width="855.6666666666667"/>
  <unicode hex="2070"/>
  <outline>
    <contour>
      <point x="429.3333333333333" y="736.0266666666666" type="curve" smooth="yes"/>
      <point x="282.90666666666664" y="736.0266666666666"/>
      <point x="209.37333333333333" y="853.8266666666667"/>
      <point x="209.37333333333333" y="1056.0" type="curve" smooth="yes"/>
      <point x="209.37333333333333" y="1237.4266666666667"/>
      <point x="283.02666666666664" y="1343.9733333333334"/>
      <point x="426.33333333333337" y="1343.9733333333334" type="curve" smooth="yes"/>
      <point x="572.76" y="1343.9733333333334"/>
      <point x="646.2933333333334" y="1226.1733333333334"/>
      <point x="646.2933333333334" y="1024.0" type="curve" smooth="yes"/>
      <point x="646.2933333333334" y="842.5733333333334"/>
      <point x="572.64" y="736.0266666666666"/>
    </contour>
    <contour>
      <point x="421.4533333333333" y="652.0" type="curve" smooth="yes"/>
      <point x="637.5466666666667" y="652.0"/>
      <point x="753.2666666666667" y="789.5066666666667"/>
      <point x="753.2666666666667" y="1043.6266666666668" type="curve" smooth="yes"/>
      <point x="753.2666666666667" y="1283.3600000000001"/>
      <point x="633.9200000000001" y="1428.0"/>
      <point x="434.21333333333337" y="1428.0" type="curve" smooth="yes"/>
      <point x="218.12" y="1428.0"/>
      <point x="102.4" y="1290.4933333333333"/>
      <point x="102.4" y="1036.3733333333332" type="curve" smooth="yes"/>
      <point x="102.4" y="796.64"/>
      <point x="221.74666666666667" y="652.0"/>
    </contour>
  </outline>
</glyph>
<glyph name="uni2074" format="2">
  <advance width="822.4933333333333"/>
  <unicode hex="2074"/>
  <outline>
    <contour>
      <point x="436.03999999999996" y="1372.44" type="line"/>
      <point x="436.03999999999996" y="742.5466666666667" type="line"/>
      <point x="261.76" y="721.32" type="line"/>
      <point x="261.76" y="662.0" type="line"/>
      <point x="711.0266666666668" y="662.0" type="line"/>
      <point x="711.0266666666668" y="721.32" type="line"/>
      <point x="546.6133333333333" y="742.5466666666667" type="line"/>
      <point x="546.6133333333333" y="1422.7733333333335" type="line"/>
      <point x="417.92" y="1422.7733333333335" type="line"/>
      <point x="60.50666666666667" y="971.3066666666667" type="line"/>
      <point x="60.50666666666667" y="907.28" type="line"/>
      <point x="715.7333333333332" y="907.28" type="line"/>
      <point x="754.4666666666666" y="1006.9333333333334" type="line"/>
      <point x="661.6266666666667" y="990.9333333333334" type="line"/>
      <point x="110.98666666666666" y="990.9333333333334" type="line"/>
      <point x="124.37333333333333" y="950.4933333333333" type="line"/>
      <point x="463.0" y="1375.4266666666667" type="line"/>
    </contour>
  </outline>
</glyph>
<glyph name="peseta" format="2">
  <advance width="1300.0"/>
  <unicode hex="20A7"/>
  <outline>
    <contour>
      <point x="231.57333333333332" y="90.52" type="line"/>
      <point x="231.57333333333332" y="1414.0" type="line"/>
      <point x="-18.493333333333332" y="1414.0" type="line"/>
      <point x="-18.493333333333332" y="1344.7066666666667" type="line"/>
      <point x="125.34666666666668" y="1323.48" type="line"/>
      <point x="125.34666666666668" y="90.52" type="line"/>
      <point x="-18.493333333333332" y="69.29333333333334" type="line"/>
      <point x="-18.493333333333332" y="0.0" type="line"/>
      <point x="377.8933333333334" y="0.0" type="line"/>
      <point x="377.8933333333334" y="69.29333333333334" type="line"/>
    </contour>
    <contour>
      <point x="705.6800000000001" y="162.0" type="line" smooth="yes"/>
      <point x="705.6800000000001" y="29.373333333333335"/>
      <point x="751.5466666666667" y="-9.24"/>
      <point x="837.28" y="-9.24" type="curve" smooth="yes"/>
      <point x="886.4" y="-9.24"/>
      <point x="925.8933333333333" y="0.5066666666666659"/>
      <point x="973.2666666666667" y="26.866666666666667" type="curve"/>
      <point x="973.2666666666667" y="103.14666666666666" type="line"/>
      <point x="937.3733333333333" y="84.52"/>
      <point x="906.48" y="76.63999999999999"/>
      <point x="875.2133333333334" y="76.63999999999999" type="curve" smooth="yes"/>
      <point x="829.8133333333334" y="76.63999999999999"/>
      <point x="809.2933333333333" y="103.28"/>
      <point x="809.2933333333333" y="185.70666666666668" type="curve" smooth="yes"/>
      <point x="809.2933333333333" y="1076.9333333333334" type="line"/>
      <point x="763.2399999999999" y="1076.9333333333334" type="line"/>
      <point x="730.7466666666667" y="919.4666666666667"/>
      <point x="716.1333333333333" y="907.6133333333333"/>
      <point x="642.7733333333334" y="883.7866666666666" type="curve"/>
      <point x="642.7733333333334" y="835.2266666666667" type="line"/>
      <point x="705.6800000000001" y="835.2266666666667" type="line"/>
    </contour>
    <contour>
      <point x="767.36" y="835.2266666666667" type="line"/>
      <point x="958.3733333333333" y="835.2266666666667" type="line"/>
      <point x="962.6266666666667" y="913.9733333333334" type="line"/>
      <point x="742.7066666666667" y="913.9733333333334" type="line"/>
    </contour>
    <contour>
      <point x="1215.3866666666668" y="958.36" type="curve" smooth="yes"/>
      <point x="1101.3999999999999" y="958.36"/>
      <point x="1025.0133333333333" y="877.88"/>
      <point x="1025.0133333333333" y="720.4133333333333" type="curve" smooth="yes"/>
      <point x="1025.0133333333333" y="419.94666666666666"/>
      <point x="1249.9599999999998" y="456.68"/>
      <point x="1249.9599999999998" y="205.70666666666668" type="curve" smooth="yes"/>
      <point x="1249.9599999999998" y="104.05333333333333"/>
      <point x="1211.9466666666665" y="55.78666666666666"/>
      <point x="1124.5333333333333" y="55.78666666666666" type="curve" smooth="yes"/>
      <point x="1103.5466666666666" y="55.78666666666666"/>
      <point x="1084.3066666666668" y="57.906666666666666"/>
      <point x="1067.3066666666668" y="68.27999999999999" type="curve"/>
      <point x="1115.9333333333334" y="8.706666666666667" type="line"/>
      <point x="1051.2" y="262.2266666666667" type="line"/>
      <point x="1002.88" y="262.2266666666667" type="line"/>
      <point x="1031.7733333333333" y="3.12" type="line"/>
      <point x="1071.0266666666666" y="-12.253333333333334"/>
      <point x="1097.8666666666666" y="-16.746666666666666"/>
      <point x="1142.4933333333333" y="-16.746666666666666" type="curve" smooth="yes"/>
      <point x="1268.3466666666666" y="-16.746666666666666"/>
      <point x="1345.2266666666667" y="60.47999999999999"/>
      <point x="1345.2266666666667" y="234.70666666666668" type="curve" smooth="yes"/>
      <point x="1345.2266666666667" y="561.4266666666666"/>
      <point x="1118.5333333333333" y="504.7866666666667"/>
      <point x="1118.5333333333333" y="757.9066666666666" type="curve" smooth="yes"/>
      <point x="1118.5333333333333" y="835.5466666666667"/>
      <point x="1155.0533333333333" y="884.0666666666667"/>
      <point x="1224.5866666666666" y="884.0666666666667" type="curve" smooth="yes"/>
      <point x="1245.2133333333334" y="884.0666666666667"/>
      <point x="1266.96" y="879.5733333333334"/>
      <point x="1284.7066666666667" y="871.7066666666667" type="curve"/>
      <point x="1247.6533333333332" y="934.0266666666666" type="line"/>
      <point x="1294.28" y="699.3733333333333" type="line"/>
      <point x="1340.6" y="699.3733333333333" type="line"/>
      <point x="1322.84" y="944.12" type="line"/>
      <point x="1292.2266666666667" y="953.7333333333333"/>
      <point x="1255.1066666666666" y="958.36"/>
    </contour>
    <contour>
      <point x="263.9866666666667" y="1317.52" type="line" smooth="yes"/>
      <point x="460.26666666666665" y="1317.52"/>
      <point x="502.91999999999996" y="1222.24"/>
      <point x="502.91999999999996" y="1028.4533333333334" type="curve" smooth="yes"/>
      <point x="502.91999999999996" y="812.1466666666666"/>
      <point x="448.38666666666666" y="721.7466666666667"/>
      <point x="316.3066666666667" y="721.7466666666667" type="curve" smooth="yes"/>
      <point x="179.25333333333333" y="721.7466666666667" type="line"/>
      <point x="167.68" y="628.5066666666667" type="line"/>
      <point x="335.71999999999997" y="628.5066666666667" type="line" smooth="yes"/>
      <point x="528.2666666666667" y="628.5066666666667"/>
      <point x="610.7733333333333" y="761.7333333333333"/>
      <point x="610.7733333333333" y="1024.2" type="curve" smooth="yes"/>
      <point x="610.7733333333333" y="1281.7733333333333"/>
      <point x="534.4000000000001" y="1414.0"/>
      <point x="291.81333333333333" y="1414.0" type="curve" smooth="yes"/>
      <point x="166.41333333333333" y="1414.0" type="line"/>
      <point x="175.37333333333333" y="1317.52" type="line"/>
    </contour>
  </outline>
</glyph>
<glyph name="notequal" format="2">
  <advance width="1140.0"/>
  <unicode hex="2260"/>
  <outline>
    <contour>
      <point x="150.6" y="18.266666666666666" type="line"/>
      <point x="267.91999999999996" y="18.266666666666666" type="line"/>
      <point x="989.4" y="1008.4666666666667" type="line"/>
      <point x="872.4533333333333" y="1008.4666666666667" type="line"/>
    </contour>
    <contour>
      <point x="150.6" y="743.2533333333333" type="line"/>
      <point x="150.6" y="642.5333333333333" type="line"/>
      <point x="989.4" y="642.5333333333333" type="line"/>
      <point x="989.4" y="743.2533333333333" type="line"/>
    </contour>
    <contour>
      <point x="150.6" y="386.8266666666667" type="line"/>
      <point x="150.6" y="286.1066666666667" type="line"/>
      <point x="989.4" y="286.1066666666667" type="line"/>
      <point x="989.4" y="386.8266666666667" type="line"/>
    </contour>
  </outline>
</glyph>
<glyph name="uni27E8" format="2">
  <advance width="1140.0"/>
  <unicode hex="27E8"/>
  <outline>
    <contour>
      <point x="343.93333333333334" y="681.76" type="line"/>
      <point x="924.12" y="1414.0" type="line"/>
      <point x="795.7066666666666" y="1414.0" type="line"/>
      <point x="239.25333333333336" y="718.72" type="line"/>
      <point x="239.25333333333336" y="693.6533333333333" type="line"/>
      <point x="795.7066666666666" y="0.0" type="line"/>
      <point x="924.12" y="0.0" type="line"/>
      <point x="342.3066666666667" y="733.8666666666667" type="line"/>
    </contour>
  </outline>
</glyph>
<glyph name="uni27E9" format="2">
  <advance width="1140.0"/>
  <unicode hex="27E9"/>
  <outline>
    <contour>
      <point x="796.4399999999999" y="681.76" type="line"/>
      <point x="798.0666666666666" y="733.8666666666667" type="line"/>
      <point x="216.25333333333333" y="0.0" type="line"/>
      <point x="344.66666666666663" y="0.0" type="line"/>
      <point x="901.12" y="693.6533333333333" type="line"/>
      <point x="901.12" y="718.72" type="line"/>
      <point x="344.66666666666663" y="1414.0" type="line"/>
      <point x="216.25333333333333" y="1414.0" type="line"/>
    </contour>
  </outline>
</glyph>
<glyph name="f_f" format="2">
  <advance width="1483.9466666666665"/>
  <unicode hex="FB00"/>
  <outline>
    <contour>
      <point x="571.72" y="0.0" type="line"/>
      <point x="571.72" y="65.91999999999999" type="line"/>
      <point x="404.71999999999997" y="90.88" type="line"/>
      <point x="404.71999999999997" y="1108.3466666666666" type="line" smooth="yes"/>
      <point x="404.71999999999997" y="1284.8400000000001"/>
      <point x="490.59999999999997" y="1363.3733333333334"/>
      <point x="700.4" y="1363.3733333333334" type="curve" smooth="yes"/>
      <point x="823.6666666666667" y="1363.3733333333334"/>
      <point x="930.0266666666668" y="1314.2666666666667"/>
      <point x="980.5333333333333" y="1228.3733333333334" type="curve"/>
      <point x="1070.4133333333332" y="1344.9066666666668" type="line"/>
      <point x="1005.28" y="1411.8933333333332"/>
      <point x="894.4" y="1450.0"/>
      <point x="735.3733333333333" y="1450.0" type="curve" smooth="yes"/>
      <point x="448.50666666666666" y="1450.0"/>
      <point x="283.8" y="1330.8000000000002"/>
      <point x="283.8" y="1077.1733333333334" type="curve" smooth="yes"/>
      <point x="283.8" y="90.88" type="line"/>
      <point x="116.80000000000001" y="65.91999999999999" type="line"/>
      <point x="116.80000000000001" y="0.0" type="line"/>
    </contour>
    <contour>
      <point x="1442.2133333333331" y="924.7733333333334" type="line"/>
      <point x="1442.2133333333334" y="1024.0" type="line"/>
      <point x="347.94666666666666" y="1024.0" type="line"/>
      <point x="287.8933333333333" y="1035.4666666666667" type="line"/>
      <point x="57.21333333333333" y="993.8" type="line"/>
      <point x="57.21333333333333" y="949.2266666666667" type="line"/>
      <point x="273.14666666666665" y="912.6800000000001" type="line"/>
      <point x="327.03999999999996" y="924.7733333333334" type="line"/>
    </contour>
    <contour>
      <point x="1049.8266666666668" y="90.88" type="line"/>
      <point x="1049.8266666666668" y="1142.3466666666666" type="line" smooth="yes"/>
      <point x="1049.8266666666668" y="1318.84"/>
      <point x="1135.7066666666667" y="1397.3733333333334"/>
      <point x="1340.3333333333335" y="1397.3733333333334" type="curve" smooth="yes"/>
      <point x="1503.7866666666666" y="1397.3733333333334"/>
      <point x="1549.5866666666666" y="1264.1599999999999"/>
      <point x="1575.8133333333335" y="1264.1599999999999" type="curve" smooth="yes"/>
      <point x="1629.76" y="1264.1599999999999"/>
      <point x="1666.0933333333332" y="1294.7466666666667"/>
      <point x="1666.0933333333332" y="1351.5733333333333" type="curve" smooth="yes"/>
      <point x="1666.0933333333332" y="1425.52"/>
      <point x="1586.9733333333334" y="1484.0"/>
      <point x="1352.28" y="1484.0" type="curve" smooth="yes"/>
      <point x="1093.6133333333332" y="1484.0"/>
      <point x="928.9066666666666" y="1364.8"/>
      <point x="928.9066666666666" y="1111.1733333333332" type="curve" smooth="yes"/>
      <point x="928.9066666666666" y="90.88" type="line"/>
      <point x="761.9066666666666" y="65.91999999999999" type="line"/>
      <point x="761.9066666666666" y="0.0" type="line"/>
      <point x="1224.6666666666667" y="0.0" type="line"/>
      <point x="1224.6666666666667" y="65.91999999999999" type="line"/>
    </contour>
  </outline>
</glyph>
<glyph name="f_f_i" format="2">
  <advance width="1924.5600000000002"/>
  <unicode hex="FB03"/>
  <outline>
    <contour>
      <point x="1606.68" y="924.7733333333334" type="line"/>
      <point x="1564.6133333333335" y="969.7066666666666" type="line"/>
      <point x="1564.6133333333335" y="90.88" type="line"/>
      <point x="1397.6133333333335" y="65.91999999999999" type="line"/>
      <point x="1397.6133333333335" y="0.0" type="line"/>
      <point x="1849.1733333333334" y="0.0" type="line"/>
      <point x="1849.1733333333334" y="65.91999999999999" type="line"/>
      <point x="1685.5333333333333" y="90.88" type="line"/>
      <point x="1685.5333333333333" y="893.9466666666667" type="line"/>
      <point x="1696.3999999999999" y="1044.0" type="line"/>
      <point x="1664.0933333333332" y="1044.0" type="line"/>
      <point x="1514.7466666666667" y="1024.0" type="line"/>
      <point x="351.08" y="1024.0" type="line"/>
      <point x="291.02666666666664" y="1035.4666666666667" type="line"/>
      <point x="60.346666666666664" y="993.8" type="line"/>
      <point x="60.346666666666664" y="949.2266666666667" type="line"/>
      <point x="276.28" y="912.6800000000001" type="line"/>
      <point x="330.1733333333333" y="924.7733333333334" type="line"/>
    </contour>
    <contour>
      <point x="562.3199999999999" y="0.0" type="line"/>
      <point x="562.3199999999999" y="65.91999999999999" type="line"/>
      <point x="395.32" y="90.88" type="line"/>
      <point x="395.32" y="1108.3466666666666" type="line" smooth="yes"/>
      <point x="395.32" y="1284.8400000000001"/>
      <point x="481.19999999999993" y="1363.3733333333334"/>
      <point x="691.0" y="1363.3733333333334" type="curve" smooth="yes"/>
      <point x="814.2666666666668" y="1363.3733333333334"/>
      <point x="920.6266666666667" y="1314.2666666666667"/>
      <point x="971.1333333333333" y="1228.3733333333334" type="curve"/>
      <point x="1061.0133333333333" y="1344.9066666666668" type="line"/>
      <point x="995.88" y="1411.8933333333332"/>
      <point x="885.0" y="1450.0"/>
      <point x="725.9733333333334" y="1450.0" type="curve" smooth="yes"/>
      <point x="439.1066666666666" y="1450.0"/>
      <point x="274.4" y="1330.8000000000002"/>
      <point x="274.4" y="1077.1733333333334" type="curve" smooth="yes"/>
      <point x="274.4" y="90.88" type="line"/>
      <point x="107.4" y="65.91999999999999" type="line"/>
      <point x="107.4" y="0.0" type="line"/>
    </contour>
    <contour>
      <point x="1040.4266666666667" y="90.88" type="line"/>
      <point x="1040.4266666666667" y="1142.3466666666666" type="line" smooth="yes"/>
      <point x="1040.4266666666667" y="1318.84"/>
      <point x="1126.3066666666668" y="1397.3733333333334"/>
      <point x="1335.9466666666667" y="1397.3733333333334" type="curve" smooth="yes"/>
      <point x="1494.3866666666668" y="1397.3733333333334"/>
      <point x="1561.9733333333334" y="1253.6533333333334"/>
      <point x="1590.32" y="1253.6533333333334" type="curve" smooth="yes"/>
      <point x="1649.1333333333334" y="1253.6533333333334"/>
      <point x="1688.96" y="1285.6133333333335"/>
      <point x="1688.96" y="1345.0666666666668" type="curve" smooth="yes"/>
      <point x="1688.96" y="1423.0133333333333"/>
      <point x="1597.0" y="1484.0"/>
      <point x="1352.9066666666665" y="1484.0" type="curve" smooth="yes"/>
      <point x="1084.2133333333331" y="1484.0"/>
      <point x="919.5066666666667" y="1364.8"/>
      <point x="919.5066666666667" y="1111.1733333333332" type="curve" smooth="yes"/>
      <point x="919.5066666666667" y="90.88" type="line"/>
      <point x="752.5066666666667" y="65.91999999999999" type="line"/>
      <point x="752.5066666666667" y="0.0" type="line"/>
      <point x="1207.4266666666667" y="0.0" type="line"/>
      <point x="1207.4266666666667" y="65.91999999999999" type="line"/>
    </contour>
  </outline>
</glyph>
<glyph name="Euro.lf" format="2">
  <advance width="1475.8266666666666"/>
  <outline>
    <contour>
      <point x="1024.8133333333333" y="588.96" type="line"/>
      <point x="116.88" y="588.96" type="line"/>
      <point x="116.88" y="503.17333333333335" type="line"/>
      <point x="1024.8133333333333" y="503.17333333333335" type="line"/>
    </contour>
    <contour>
      <point x="1024.8133333333333" y="909.7066666666667" type="line"/>
      <point x="116.88" y="909.7066666666667" type="line"/>
      <point x="116.88" y="823.92" type="line"/>
      <point x="1024.8133333333333" y="823.92" type="line"/>
    </contour>
    <contour>
      <point x="963.7466666666667" y="1342.3733333333332" type="curve" smooth="yes"/>
      <point x="1182.8933333333332" y="1342.3733333333332"/>
      <point x="1240.1333333333332" y="1193.76"/>
      <point x="1267.1200000000001" y="1193.76" type="curve" smooth="yes"/>
      <point x="1321.48" y="1193.76"/>
      <point x="1356.1866666666667" y="1233.7199999999998"/>
      <point x="1356.1866666666667" y="1284.44" type="curve" smooth="yes"/>
      <point x="1356.1866666666667" y="1354.3866666666665"/>
      <point x="1255.2133333333334" y="1434.0"/>
      <point x="986.8666666666667" y="1434.0" type="curve" smooth="yes"/>
      <point x="572.0133333333333" y="1434.0"/>
      <point x="350.02666666666664" y="1174.0"/>
      <point x="350.02666666666664" y="708.1333333333333" type="curve" smooth="yes"/>
      <point x="350.02666666666664" y="183.61333333333334"/>
      <point x="542.0133333333333" y="-20.0"/>
      <point x="955.3466666666666" y="-20.0" type="curve" smooth="yes"/>
      <point x="1199.56" y="-20.0"/>
      <point x="1356.1866666666665" y="69.98666666666666"/>
      <point x="1356.1866666666665" y="144.69333333333333" type="curve" smooth="yes"/>
      <point x="1356.1866666666665" y="188.16"/>
      <point x="1324.7333333333333" y="220.86666666666667"/>
      <point x="1272.3733333333334" y="220.86666666666667" type="curve" smooth="yes"/>
      <point x="1245.3866666666668" y="220.86666666666667"/>
      <point x="1169.76" y="71.62666666666667"/>
      <point x="953.0933333333334" y="71.62666666666667" type="curve" smooth="yes"/>
      <point x="628.1066666666666" y="71.62666666666667"/>
      <point x="480.8" y="248.69333333333333"/>
      <point x="480.8" y="686.6" type="curve" smooth="yes"/>
      <point x="480.8" y="1151.92"/>
      <point x="644.88" y="1342.3733333333332"/>
    </contour>
  </outline>
</glyph>
<glyph name="colonmonetary.lf.1" format="2">
  <advance width="1197.4266666666667"/>
  <outline>
    <contour>
      <point x="714.2533333333333" y="1342.3733333333334" type="curve" smooth="yes"/>
      <point x="916.48" y="1342.3733333333334"/>
      <point x="989.3866666666667" y="1198.1466666666668"/>
      <point x="1013.8666666666667" y="1198.1466666666668" type="curve" smooth="yes"/>
      <point x="1063.84" y="1198.1466666666668"/>
      <point x="1096.6666666666665" y="1236.8533333333335"/>
      <point x="1096.6666666666665" y="1283.8133333333333" type="curve" smooth="yes"/>
      <point x="1096.6666666666665" y="1355.0133333333333"/>
      <point x="1003.8399999999999" y="1434.0"/>
      <point x="738.6266666666667" y="1434.0" type="curve" smooth="yes"/>
      <point x="323.24" y="1433.6266666666668"/>
      <point x="128.76" y="1131.8666666666666"/>
      <point x="128.76" y="696.8933333333333" type="curve" smooth="yes"/>
      <point x="128.76" y="206.98666666666665"/>
      <point x="308.12" y="-20.0"/>
      <point x="634.8533333333334" y="-20.0" type="curve" smooth="yes"/>
      <point x="798.5866666666667" y="-20.0"/>
      <point x="904.5733333333334" y="4.48"/>
      <point x="1069.3066666666666" y="84.81333333333333" type="curve"/>
      <point x="1069.3066666666666" y="176.85333333333332" type="line"/>
      <point x="916.0400000000001" y="104.96"/>
      <point x="828.4" y="88.33333333333333"/>
      <point x="711.6533333333333" y="88.33333333333333" type="curve" smooth="yes"/>
      <point x="399.2" y="88.33333333333333"/>
      <point x="260.03999999999996" y="269.74666666666667"/>
      <point x="260.03999999999996" y="712.72" type="curve" smooth="yes"/>
      <point x="260.03999999999996" y="1149.3066666666668"/>
      <point x="430.38666666666666" y="1342.3733333333334"/>
    </contour>
    <contour>
      <point x="698.0533333333333" y="1373.0533333333333" type="line"/>
      <point x="754.7866666666666" y="1625.36" type="line"/>
      <point x="665.6133333333332" y="1625.36" type="line"/>
      <point x="608.88" y="1373.0533333333333" type="line"/>
    </contour>
    <contour>
      <point x="328.8666666666667" y="123.69333333333333" type="line"/>
      <point x="253.76" y="-211.36" type="line"/>
      <point x="342.93333333333334" y="-211.36" type="line"/>
      <point x="418.03999999999996" y="123.69333333333333" type="line"/>
    </contour>
    <contour>
      <point x="934.24" y="1373.0533333333333" type="line"/>
      <point x="990.9733333333332" y="1625.36" type="line"/>
      <point x="902.1733333333333" y="1625.36" type="line"/>
      <point x="845.4399999999999" y="1373.0533333333333" type="line"/>
    </contour>
    <contour>
      <point x="546.4133333333333" y="39.75999999999999" type="line"/>
      <point x="490.32" y="-211.36" type="line"/>
      <point x="579.4933333333333" y="-211.36" type="line"/>
      <point x="635.5866666666667" y="39.75999999999999" type="line"/>
    </contour>
  </outline>
</glyph>
<glyph name="dollar.lf.1" format="2">
  <advance width="1145.8000000000002"/>
  <outline>
    <contour>
      <point x="486.76" y="-20.0" type="curve" smooth="yes"/>
      <point x="847.6933333333333" y="-20.0"/>
      <point x="1041.4266666666667" y="128.48237772761473"/>
      <point x="1041.4266666666667" y="403.08" type="curve" smooth="yes"/>
      <point x="1041.4266666666667" y="590.5466666666666"/>
      <point x="961.8266666666667" y="723.2933333333333"/>
      <point x="638.16" y="786.5466666666666" type="curve" smooth="yes"/>
      <point x="314.11999999999995" y="849.8"/>
      <point x="255.9733333333333" y="941.08"/>
      <point x="255.9733333333333" y="1084.0" type="curve" smooth="yes"/>
      <point x="255.9733333333333" y="1247.3417573221757"/>
      <point x="366.8533333333333" y="1346.8533333333335"/>
      <point x="605.2933333333333" y="1346.8533333333335" type="curve" smooth="yes"/>
      <point x="800.5466666666666" y="1346.8533333333335"/>
      <point x="902.2133333333334" y="1196.28"/>
      <point x="925.5733333333333" y="1196.28" type="curve" smooth="yes"/>
      <point x="973.92" y="1196.28"/>
      <point x="1006.4933333333333" y="1234.24"/>
      <point x="1006.4933333333333" y="1284.0800000000002" type="curve" smooth="yes"/>
      <point x="1006.4933333333333" y="1379.6266666666668"/>
      <point x="850.36" y="1434.0"/>
      <point x="622.4" y="1434.0" type="curve" smooth="yes"/>
      <point x="303.2266666666667" y="1434.0"/>
      <point x="139.04" y="1280.8049706129304"/>
      <point x="139.04" y="1061.3066666666666" type="curve" smooth="yes"/>
      <point x="139.04" y="873.3199999999999"/>
      <point x="221.78666666666666" y="744.96"/>
      <point x="547.4533333333333" y="680.08" type="curve" smooth="yes"/>
      <point x="874.4933333333333" y="615.5733333333334"/>
      <point x="921.7466666666667" y="516.6666666666666"/>
      <point x="921.7466666666667" y="377.64" type="curve" smooth="yes"/>
      <point x="921.7466666666667" y="179.52768683274022"/>
      <point x="770.4533333333334" y="67.14666666666666"/>
      <point x="517.0266666666666" y="67.14666666666666" type="curve" smooth="yes"/>
      <point x="296.08" y="67.14666666666666"/>
      <point x="205.69333333333333" y="224.61333333333332"/>
      <point x="179.82666666666665" y="224.61333333333332" type="curve" smooth="yes"/>
      <point x="125.83999999999999" y="224.61333333333332"/>
      <point x="90.13333333333334" y="184.77333333333334"/>
      <point x="90.13333333333334" y="133.68" type="curve" smooth="yes"/>
      <point x="90.13333333333334" y="34.373333333333335"/>
      <point x="246.26666666666665" y="-20.0"/>
    </contour>
    <contour>
      <point x="522.7333333333333" y="1375.1866666666667" type="line"/>
      <point x="522.7333333333333" y="1622.0" type="line"/>
      <point x="434.81333333333333" y="1622.0" type="line"/>
      <point x="434.81333333333333" y="1375.1866666666667" type="line"/>
    </contour>
    <contour>
      <point x="753.9333333333334" y="1375.1866666666667" type="line"/>
      <point x="753.9333333333334" y="1622.0" type="line"/>
      <point x="666.0133333333333" y="1622.0" type="line"/>
      <point x="666.0133333333333" y="1375.1866666666667" type="line"/>
    </contour>
    <contour>
      <point x="434.81333333333333" y="35.45333333333333" type="line"/>
      <point x="434.81333333333333" y="-208.0" type="line"/>
      <point x="522.7333333333333" y="-208.0" type="line"/>
      <point x="522.7333333333333" y="35.45333333333333" type="line"/>
    </contour>
    <contour>
      <point x="666.0133333333333" y="35.45333333333333" type="line"/>
      <point x="666.0133333333333" y="-208.0" type="line"/>
      <point x="753.9333333333334" y="-208.0" type="line"/>
      <point x="753.9333333333334" y="35.45333333333333" type="line"/>
    </contour>
  </outline>
</glyph>
<glyph name="dong.lf" format="2">
  <advance width="1414.28"/>
  <outline>
    <contour>
      <point x="1316.68" y="-264.8" type="line"/>
      <point x="141.53333333333333" y="-264.8" type="line"/>
      <point x="141.53333333333333" y="-350.5866666666667" type="line"/>
      <point x="1316.68" y="-350.5866666666667" type="line"/>
    </contour>
    <contour>
      <point x="955.7866666666667" y="791.4533333333334" type="curve" smooth="yes"/>
      <point x="955.7866666666667" y="158.89333333333335" type="line"/>
      <point x="991.3066666666667" y="-16.240000000000002" type="line"/>
      <point x="1018.6533333333334" y="-16.240000000000002" type="line"/>
      <point x="1297.68" y="55.239999999999995" type="line"/>
      <point x="1297.68" y="95.35999999999999" type="line"/>
      <point x="1257.68" y="105.01491739726845"/>
      <point x="1099.7066666666667" y="137.56842249657063"/>
      <point x="1076.7066666666667" y="143.12" type="curve"/>
      <point x="1076.7066666666667" y="1348.8133333333333" type="line"/>
      <point x="1090.44" y="1484.0" type="line"/>
      <point x="1064.1066666666668" y="1484.0" type="line"/>
      <point x="740.2933333333333" y="1434.0533333333335" type="line"/>
      <point x="740.2933333333333" y="1380.12" type="line"/>
      <point x="795.2933333333333" y="1367.7803761182088"/>
      <point x="932.7866666666667" y="1336.7335396839005"/>
      <point x="955.7866666666667" y="1331.5733333333335" type="curve"/>
      <point x="955.7866666666667" y="911.8133333333333" type="line"/>
      <point x="1039.2" y="963.5733333333334" type="line"/>
      <point x="917.0933333333334" y="1022.2666666666668"/>
      <point x="840.0266666666666" y="1044.0"/>
      <point x="705.68" y="1044.0" type="curve" smooth="yes"/>
      <point x="360.76" y="1044.0"/>
      <point x="119.89333333333333" y="828.2666666666668"/>
      <point x="119.89333333333333" y="475.1333333333333" type="curve" smooth="yes"/>
      <point x="119.89333333333333" y="154.46666666666667"/>
      <point x="274.0133333333333" y="-20.0"/>
      <point x="591.2933333333333" y="-20.0" type="curve" smooth="yes"/>
      <point x="673.1733333333333" y="-20.0"/>
      <point x="738.2666666666667" y="-0.7600000000000002"/>
      <point x="1023.7333333333333" y="167.35999999999999" type="curve"/>
      <point x="1023.7333333333333" y="208.25333333333333" type="line"/>
      <point x="869.8933333333333" y="121.18666666666667"/>
      <point x="753.2666666666667" y="88.18666666666667"/>
      <point x="633.6533333333334" y="88.18666666666667" type="curve" smooth="yes"/>
      <point x="373.93333333333334" y="88.18666666666667"/>
      <point x="249.66666666666669" y="234.6533333333333"/>
      <point x="249.66666666666669" y="487.68" type="curve" smooth="yes"/>
      <point x="249.66666666666669" y="778.8000000000001"/>
      <point x="406.1333333333333" y="956.1333333333333"/>
      <point x="698.56" y="956.1333333333333" type="curve" smooth="yes"/>
      <point x="872.12" y="956.1333333333333"/>
      <point x="955.7866666666667" y="889.6933333333333"/>
    </contour>
    <contour>
      <point x="619.2800000000001" y="1145.7199999999998" type="line"/>
      <point x="1291.4133333333334" y="1145.7199999999998" type="line"/>
      <point x="1291.4133333333334" y="1232.5066666666667" type="line"/>
      <point x="619.2800000000001" y="1232.5066666666667" type="line"/>
    </contour>
  </outline>
</glyph>
<glyph name="florin.lf" format="2">
  <advance width="1559.6399999999999"/>
  <outline>
    <contour>
      <point x="424.4" y="668.92" type="line"/>
      <point x="1199.96" y="668.92" type="line"/>
      <point x="1199.96" y="754.7066666666667" type="line"/>
      <point x="424.4" y="754.7066666666667" type="line"/>
    </contour>
    <contour>
      <point x="284.8933333333334" y="-243.0" type="curve" smooth="yes"/>
      <point x="538.9466666666667" y="-243.0"/>
      <point x="703.0533333333333" y="-85.78666666666668"/>
      <point x="770.1866666666667" y="241.93333333333334" type="curve" smooth="yes"/>
      <point x="917.9733333333334" y="966.96" type="line" smooth="yes"/>
      <point x="974.6266666666667" y="1242.6666666666667"/>
      <point x="1081.5733333333335" y="1349.8533333333332"/>
      <point x="1227.1333333333334" y="1349.8533333333332" type="curve" smooth="yes"/>
      <point x="1350.3066666666666" y="1349.8533333333332"/>
      <point x="1412.3333333333333" y="1242.6266666666666"/>
      <point x="1425.9466666666665" y="1242.6266666666666" type="curve" smooth="yes"/>
      <point x="1478.2933333333333" y="1242.6266666666666"/>
      <point x="1506.0133333333333" y="1275.72"/>
      <point x="1506.0133333333333" y="1322.3066666666666" type="curve" smooth="yes"/>
      <point x="1506.0133333333333" y="1382.4933333333333"/>
      <point x="1450.44" y="1434.0"/>
      <point x="1274.7466666666667" y="1434.0" type="curve" smooth="yes"/>
      <point x="1020.6933333333334" y="1434.0"/>
      <point x="856.3333333333334" y="1276.7866666666666"/>
      <point x="789.4533333333334" y="949.0666666666667" type="curve" smooth="yes"/>
      <point x="641.6666666666666" y="224.04000000000002" type="line" smooth="yes"/>
      <point x="585.0133333333334" y="-51.66666666666667"/>
      <point x="478.06666666666666" y="-158.85333333333332"/>
      <point x="332.50666666666666" y="-158.85333333333332" type="curve" smooth="yes"/>
      <point x="209.33333333333334" y="-158.85333333333332"/>
      <point x="147.30666666666664" y="-51.626666666666665"/>
      <point x="133.69333333333333" y="-51.626666666666665" type="curve" smooth="yes"/>
      <point x="81.34666666666666" y="-51.626666666666665"/>
      <point x="53.62666666666667" y="-84.72"/>
      <point x="53.62666666666667" y="-131.30666666666667" type="curve" smooth="yes"/>
      <point x="53.62666666666667" y="-191.49333333333334"/>
      <point x="109.19999999999999" y="-243.0"/>
    </contour>
  </outline>
</glyph>
<glyph name="nine.lf" format="2">
  <advance width="1211.3333333333333"/>
  <outline>
    <contour>
      <point x="283.6666666666667" y="-50.0" type="line"/>
      <point x="891.2" y="111.54666666666667"/>
      <point x="1082.3066666666666" y="413.49333333333334"/>
      <point x="1082.3066666666666" y="862.64" type="curve" smooth="yes"/>
      <point x="1082.3066666666666" y="1223.0533333333333"/>
      <point x="911.2933333333334" y="1434.0"/>
      <point x="582.4533333333334" y="1434.0" type="curve" smooth="yes"/>
      <point x="286.25333333333333" y="1434.0"/>
      <point x="95.64" y="1251.4933333333333"/>
      <point x="95.64" y="964.2133333333334" type="curve" smooth="yes"/>
      <point x="95.64" y="708.7733333333333"/>
      <point x="236.48" y="549.4666666666667"/>
      <point x="511.5733333333333" y="549.4666666666667" type="curve" smooth="yes"/>
      <point x="745.2533333333333" y="549.4666666666667"/>
      <point x="928.76" y="694.6666666666667"/>
      <point x="976.6266666666667" y="928.6400000000001" type="curve"/>
      <point x="956.8933333333333" y="952.0533333333334" type="line"/>
      <point x="898.6266666666667" y="727.0799999999999"/>
      <point x="711.2266666666667" y="651.8266666666666"/>
      <point x="559.8533333333334" y="651.8266666666666" type="curve" smooth="yes"/>
      <point x="341.71999999999997" y="651.8266666666666"/>
      <point x="223.06666666666666" y="767.4"/>
      <point x="223.06666666666666" y="976.1733333333333" type="curve" smooth="yes"/>
      <point x="223.06666666666666" y="1213.3333333333333"/>
      <point x="361.53333333333336" y="1339.2666666666667"/>
      <point x="578.6" y="1339.2666666666667" type="curve" smooth="yes"/>
      <point x="806.2933333333333" y="1339.2666666666667"/>
      <point x="953.2666666666668" y="1194.2533333333333"/>
      <point x="953.2666666666668" y="852.8666666666667" type="curve" smooth="yes"/>
      <point x="953.2666666666668" y="421.85333333333335"/>
      <point x="778.04" y="167.81333333333333"/>
      <point x="253.82666666666668" y="27.266666666666662" type="curve"/>
    </contour>
  </outline>
</glyph>
<glyph name="numbersign.lf" format="2">
  <advance width="1374.8666666666666"/>
  <outline>
    <contour>
      <point x="773.32" y="0.0" type="line"/>
      <point x="1089.0666666666666" y="1418.1066666666666" type="line"/>
      <point x="1014.64" y="1418.1066666666666" type="line"/>
      <point x="698.8933333333333" y="0.0" type="line"/>
    </contour>
    <contour>
      <point x="367.6" y="0.0" type="line"/>
      <point x="683.3466666666667" y="1418.1066666666666" type="line"/>
      <point x="609.5466666666666" y="1418.1066666666666" type="line"/>
      <point x="293.8" y="0.0" type="line"/>
    </contour>
    <contour>
      <point x="1208.6" y="529.3466666666667" type="line"/>
      <point x="82.88000000000001" y="529.3466666666667" type="line"/>
      <point x="82.88000000000001" y="459.04" type="line"/>
      <point x="1208.6" y="459.04" type="line"/>
    </contour>
    <contour>
      <point x="1288.7333333333333" y="974.3466666666667" type="line"/>
      <point x="177.77333333333334" y="974.3466666666667" type="line"/>
      <point x="177.77333333333334" y="904.04" type="line"/>
      <point x="1288.7333333333333" y="904.04" type="line"/>
    </contour>
  </outline>
</glyph>
<glyph name="one.lf" format="2">
  <advance width="870.68"/>
  <outline>
    <contour>
      <point x="431.50666666666666" y="99.10666666666665" type="line"/>
      <point x="184.53333333333333" y="68.91999999999999" type="line"/>
      <point x="184.53333333333333" y="0.0" type="line"/>
      <point x="793.1466666666666" y="0.0" type="line"/>
      <point x="793.1466666666666" y="68.91999999999999" type="line"/>
      <point x="558.04" y="99.10666666666665" type="line"/>
      <point x="558.04" y="1434.0" type="line"/>
      <point x="465.6933333333333" y="1434.0" type="line"/>
      <point x="55.626666666666665" y="1242.0" type="line"/>
      <point x="86.58666666666666" y="1158.0400000000002" type="line"/>
      <point x="467.6933333333333" y="1304.9733333333334" type="line"/>
      <point x="431.50666666666666" y="1347.7066666666667" type="line"/>
    </contour>
  </outline>
</glyph>
<glyph name="peseta.lf" format="2">
  <advance width="1788.0"/>
  <outline>
    <contour>
      <point x="419.26666666666665" y="90.52" type="line"/>
      <point x="419.26666666666665" y="1414.0" type="line"/>
      <point x="161.73333333333332" y="1414.0" type="line"/>
      <point x="161.73333333333332" y="1344.7066666666667" type="line"/>
      <point x="312.2933333333333" y="1323.48" type="line"/>
      <point x="312.2933333333333" y="90.52" type="line"/>
      <point x="161.73333333333332" y="69.29333333333334" type="line"/>
      <point x="161.73333333333332" y="0.0" type="line"/>
      <point x="572.6800000000001" y="0.0" type="line"/>
      <point x="572.6800000000001" y="69.29333333333334" type="line"/>
    </contour>
    <contour>
      <point x="956.52" y="201.33333333333331" type="line" smooth="yes"/>
      <point x="956.52" y="32.50666666666667"/>
      <point x="1007.88" y="-9.24"/>
      <point x="1102.6" y="-9.24" type="curve" smooth="yes"/>
      <point x="1157.5866666666666" y="-9.24"/>
      <point x="1201.2" y="-0.1200000000000001"/>
      <point x="1253.44" y="26.866666666666667" type="curve"/>
      <point x="1253.44" y="103.14666666666666" type="line"/>
      <point x="1213.8" y="83.26666666666667"/>
      <point x="1182.6666666666667" y="76.63999999999999"/>
      <point x="1151.16" y="76.63999999999999" type="curve" smooth="yes"/>
      <point x="1086.2666666666667" y="76.63999999999999"/>
      <point x="1060.8799999999999" y="110.14666666666666"/>
      <point x="1060.8799999999999" y="202.65333333333334" type="curve" smooth="yes"/>
      <point x="1060.8799999999999" y="1076.9333333333332" type="line"/>
      <point x="1014.8266666666668" y="1076.9333333333332" type="line"/>
      <point x="980.0933333333334" y="919.4666666666667"/>
      <point x="964.36" y="907.6133333333333"/>
      <point x="886.52" y="883.7866666666666" type="curve"/>
      <point x="886.52" y="835.2266666666666" type="line"/>
      <point x="956.52" y="835.2266666666666" type="line"/>
    </contour>
    <contour>
      <point x="1019.3199999999999" y="835.2266666666666" type="line"/>
      <point x="1233.6933333333334" y="835.2266666666666" type="line"/>
      <point x="1237.9466666666667" y="913.9733333333334" type="line"/>
      <point x="993.5466666666667" y="913.9733333333334" type="line"/>
    </contour>
    <contour>
      <point x="1514.6666666666667" y="958.36" type="curve" smooth="yes"/>
      <point x="1392.08" y="958.36"/>
      <point x="1309.96" y="877.88"/>
      <point x="1309.96" y="720.4133333333333" type="curve" smooth="yes"/>
      <point x="1309.96" y="431.8533333333333"/>
      <point x="1568.2266666666667" y="455.4266666666667"/>
      <point x="1568.2266666666667" y="206.96" type="curve" smooth="yes"/>
      <point x="1568.2266666666667" y="104.67999999999999"/>
      <point x="1526.4666666666667" y="55.78666666666666"/>
      <point x="1429.9333333333334" y="55.78666666666666" type="curve" smooth="yes"/>
      <point x="1404.9466666666667" y="55.78666666666666"/>
      <point x="1381.7066666666667" y="57.28"/>
      <point x="1362.3333333333333" y="68.27999999999999" type="curve"/>
      <point x="1407.9733333333334" y="8.706666666666667" type="line"/>
      <point x="1344.3600000000001" y="262.2266666666667" type="line"/>
      <point x="1291.9333333333334" y="262.2266666666667" type="line"/>
      <point x="1322.32" y="3.12" type="line"/>
      <point x="1365.6933333333334" y="-12.88"/>
      <point x="1396.6533333333332" y="-16.746666666666666"/>
      <point x="1446.4" y="-16.746666666666666" type="curve" smooth="yes"/>
      <point x="1578.8666666666668" y="-16.746666666666666"/>
      <point x="1659.9866666666667" y="60.480000000000004"/>
      <point x="1659.9866666666667" y="234.70666666666668" type="curve" smooth="yes"/>
      <point x="1659.9866666666667" y="553.9066666666668"/>
      <point x="1399.6000000000001" y="511.68"/>
      <point x="1399.6000000000001" y="756.6533333333333" type="curve" smooth="yes"/>
      <point x="1399.6000000000001" y="834.9200000000001"/>
      <point x="1439.4933333333333" y="884.0666666666667"/>
      <point x="1517.1466666666665" y="884.0666666666667" type="curve" smooth="yes"/>
      <point x="1538.8933333333332" y="884.0666666666667"/>
      <point x="1561.76" y="879.5733333333334"/>
      <point x="1580.6266666666666" y="871.7066666666667" type="curve"/>
      <point x="1539.84" y="934.0266666666666" type="line"/>
      <point x="1589.08" y="699.3733333333333" type="line"/>
      <point x="1639.5066666666667" y="699.3733333333333" type="line"/>
      <point x="1621.0" y="944.12" type="line"/>
      <point x="1590.3866666666668" y="952.9866666666667"/>
      <point x="1554.0133333333333" y="958.36"/>
    </contour>
    <contour>
      <point x="482.50666666666666" y="1317.52" type="line" smooth="yes"/>
      <point x="696.6533333333333" y="1317.52"/>
      <point x="744.0533333333333" y="1222.24"/>
      <point x="744.0533333333333" y="1028.4533333333334" type="curve" smooth="yes"/>
      <point x="744.0533333333333" y="812.1466666666666"/>
      <point x="683.1466666666666" y="721.7466666666667"/>
      <point x="536.3199999999999" y="721.7466666666667" type="curve" smooth="yes"/>
      <point x="371.4266666666667" y="721.7466666666667" type="line"/>
      <point x="357.9866666666667" y="628.5066666666667" type="line"/>
      <point x="550.1333333333333" y="628.5066666666667" type="line" smooth="yes"/>
      <point x="761.5333333333333" y="628.5066666666667"/>
      <point x="852.6533333333333" y="761.7333333333333"/>
      <point x="852.6533333333333" y="1024.2" type="curve" smooth="yes"/>
      <point x="852.6533333333333" y="1281.7733333333333"/>
      <point x="769.2933333333334" y="1414.0"/>
      <point x="504.36" y="1414.0" type="curve" smooth="yes"/>
      <point x="356.71999999999997" y="1414.0" type="line"/>
      <point x="367.17333333333335" y="1317.52" type="line"/>
    </contour>
  </outline>
</glyph>
<glyph name="six.lf" format="2">
  <advance width="1214.84"/>
  <outline>
    <contour>
      <point x="964.64" y="1464.0" type="line"/>
      <point x="330.16" y="1296.1866666666667"/>
      <point x="128.4" y="1000.5066666666667"/>
      <point x="128.4" y="551.36" type="curve" smooth="yes"/>
      <point x="128.4" y="190.94666666666666"/>
      <point x="300.5327859249328" y="-20.0"/>
      <point x="629.3733333333333" y="-20.0" type="curve" smooth="yes"/>
      <point x="925.6812242622344" y="-20.0"/>
      <point x="1115.0666666666666" y="167.73333333333335"/>
      <point x="1115.0666666666666" y="463.2266666666667" type="curve" smooth="yes"/>
      <point x="1115.0666666666666" y="716.4266666666667"/>
      <point x="971.24" y="872.0"/>
      <point x="699.1333333333333" y="872.0" type="curve" smooth="yes"/>
      <point x="466.5733333333334" y="872.0"/>
      <point x="281.20000000000005" y="720.8266666666666"/>
      <point x="234.08" y="489.84000000000003" type="curve"/>
      <point x="253.81333333333333" y="466.4266666666666" type="line"/>
      <point x="312.08" y="692.52"/>
      <point x="499.47999999999996" y="768.5200000000001"/>
      <point x="650.8533333333334" y="768.5200000000001" type="curve" smooth="yes"/>
      <point x="868.9866666666667" y="768.5200000000001"/>
      <point x="987.6400000000001" y="654.4399999999999"/>
      <point x="987.6400000000001" y="443.8" type="curve" smooth="yes"/>
      <point x="987.6400000000001" y="205.14666666666668"/>
      <point x="849.1733333333333" y="74.73333333333333"/>
      <point x="632.1066666666667" y="74.73333333333333" type="curve" smooth="yes"/>
      <point x="403.29333333333335" y="74.73333333333333"/>
      <point x="257.44" y="221.98666666666665"/>
      <point x="257.44" y="561.1333333333333" type="curve" smooth="yes"/>
      <point x="257.44" y="986.92"/>
      <point x="440.46666666666664" y="1239.1733333333334"/>
      <point x="994.48" y="1386.7333333333333" type="curve"/>
    </contour>
  </outline>
</glyph>
<glyph name="sterling.lf" format="2">
  <advance width="1272.7866666666669"/>
  <outline>
    <contour>
      <point x="1008.5066666666667" y="943.88" type="curve"/>
      <point x="1102.24" y="956.7333333333333" type="line"/>
      <point x="1072.1333333333334" y="1280.2666666666667"/>
      <point x="923.7733333333333" y="1434.0"/>
      <point x="633.7733333333333" y="1434.0" type="curve" smooth="yes"/>
      <point x="325.06666666666666" y="1434.0"/>
      <point x="183.22666666666666" y="1245.36"/>
      <point x="182.10666666666665" y="1039.8799999999999" type="curve" smooth="yes"/>
      <point x="181.35999999999999" y="731.7466666666667"/>
      <point x="416.2666666666667" y="651.6133333333333"/>
      <point x="416.2666666666667" y="450.35999999999996" type="curve" smooth="yes"/>
      <point x="416.2666666666667" y="341.1066666666667"/>
      <point x="349.28000000000003" y="244.72"/>
      <point x="188.25333333333333" y="79.05333333333334" type="curve"/>
      <point x="188.25333333333333" y="0.0" type="line"/>
      <point x="986.9200000000001" y="0.0" type="line"/>
      <point x="995.5066666666667" y="-70.74666666666667" type="line"/>
      <point x="1080.92" y="-70.74666666666667" type="line"/>
      <point x="1169.4" y="393.14666666666665" type="line"/>
      <point x="1090.12" y="393.14666666666665" type="line"/>
      <point x="971.3599999999999" y="82.66666666666667" type="line"/>
      <point x="1056.3733333333334" y="115.30666666666666" type="line"/>
      <point x="256.25333333333333" y="115.30666666666666" type="line"/>
      <point x="270.12" y="67.62666666666667" type="line"/>
      <point x="455.70666666666665" y="230.76"/>
      <point x="528.5999999999999" y="383.50666666666666"/>
      <point x="528.5999999999999" y="489.73333333333335" type="curve" smooth="yes"/>
      <point x="528.5999999999999" y="676.1733333333334"/>
      <point x="314.8666666666666" y="798.1866666666667"/>
      <point x="314.8666666666666" y="1043.0400000000002" type="curve" smooth="yes"/>
      <point x="314.8666666666666" y="1211.4666666666667"/>
      <point x="415.7733333333333" y="1331.3999999999999"/>
      <point x="643.4000000000001" y="1331.3999999999999" type="curve" smooth="yes"/>
      <point x="866.6266666666667" y="1331.3999999999999"/>
      <point x="968.3866666666667" y="1209.2266666666667"/>
    </contour>
    <contour>
      <point x="862.4133333333333" y="754.7066666666667" type="line"/>
      <point x="105.52" y="754.7066666666667" type="line"/>
      <point x="105.52" y="668.92" type="line"/>
      <point x="862.4133333333333" y="668.92" type="line"/>
    </contour>
  </outline>
</glyph>
<glyph name="three.lf" format="2">
  <advance width="1167.7466666666667"/>
  <outline>
    <contour>
      <point x="468.8" y="691.2266666666667" type="line"/>
      <point x="556.4266666666666" y="696.6" type="line" smooth="yes"/>
      <point x="819.1466666666668" y="712.6"/>
      <point x="919.8133333333333" y="606.68"/>
      <point x="919.8133333333333" y="432.76" type="curve" smooth="yes"/>
      <point x="919.8133333333333" y="212.56"/>
      <point x="763.9866666666666" y="70.13333333333333"/>
      <point x="462.52000000000004" y="70.13333333333333" type="curve" smooth="yes"/>
      <point x="357.5866666666667" y="70.13333333333333"/>
      <point x="218.42666666666668" y="213.17333333333335"/>
      <point x="192.95999999999998" y="213.17333333333335" type="curve" smooth="yes"/>
      <point x="152.85333333333335" y="213.17333333333335"/>
      <point x="113.39999999999999" y="174.2266666666667"/>
      <point x="113.39999999999999" y="118.65333333333332" type="curve" smooth="yes"/>
      <point x="113.39999999999999" y="42.45333333333333"/>
      <point x="196.88" y="-20.0"/>
      <point x="441.92" y="-20.0" type="curve" smooth="yes"/>
      <point x="808.0533333333334" y="-20.0"/>
      <point x="1044.1066666666668" y="154.2"/>
      <point x="1044.1066666666668" y="445.9866666666667" type="curve" smooth="yes"/>
      <point x="1044.1066666666668" y="668.6266666666667"/>
      <point x="901.5866666666667" y="795.36"/>
      <point x="634.9733333333334" y="786.96" type="curve"/>
      <point x="606.4133333333333" y="775.3333333333334" type="line"/>
      <point x="827.44" y="793.72"/>
      <point x="958.9333333333333" y="941.6133333333333"/>
      <point x="958.9333333333333" y="1118.48" type="curve" smooth="yes"/>
      <point x="958.9333333333333" y="1305.2533333333333"/>
      <point x="833.2" y="1434.0"/>
      <point x="594.76" y="1434.0" type="curve" smooth="yes"/>
      <point x="348.81333333333333" y="1434.0"/>
      <point x="182.01333333333332" y="1303.6399999999999"/>
      <point x="116.13333333333333" y="1059.8133333333333" type="curve"/>
      <point x="199.13333333333333" y="1036.0933333333335" type="line"/>
      <point x="271.6533333333333" y="1241.9066666666668"/>
      <point x="388.6666666666667" y="1328.68"/>
      <point x="566.5733333333334" y="1328.68" type="curve" smooth="yes"/>
      <point x="751.4666666666666" y="1328.68"/>
      <point x="832.8933333333333" y="1231.28"/>
      <point x="832.8933333333333" y="1090.8533333333335" type="curve" smooth="yes"/>
      <point x="832.8933333333333" y="920.52"/>
      <point x="739.36" y="808.4533333333333"/>
      <point x="460.94666666666666" y="779.2133333333334" type="curve"/>
    </contour>
  </outline>
</glyph>
<glyph name="uni0302_hookabovecomb.case" format="2">
  <anchor x="0.0" y="1414.0" name="_UCtop"/>
  <outline>
    <contour>
      <point x="19.226666666666667" y="1795.5866666666666" type="line"/>
      <point x="-19.853333333333335" y="1795.5866666666666" type="line"/>
      <point x="217.0666666666667" y="1544.0" type="line"/>
      <point x="318.6533333333333" y="1544.0" type="line"/>
      <point x="59.28" y="1870.0" type="line"/>
      <point x="-58.653333333333336" y="1870.0" type="line"/>
      <point x="-318.6533333333333" y="1544.0" type="line"/>
      <point x="-217.0666666666667" y="1544.0" type="line"/>
    </contour>
    <contour>
      <point x="249.26666666666668" y="1800.3600000000001" type="curve"/>
      <point x="270.14666666666665" y="1746.4133333333334" type="line"/>
      <point x="449.81333333333333" y="1795.1733333333334"/>
      <point x="497.5466666666667" y="1853.6399999999999"/>
      <point x="497.5466666666667" y="1951.3733333333332" type="curve" smooth="yes"/>
      <point x="497.5466666666667" y="2043.2133333333331"/>
      <point x="450.93333333333334" y="2106.84"/>
      <point x="163.69333333333333" y="2116.8533333333335" type="curve"/>
      <point x="151.56" y="2017.9466666666667" type="line"/>
      <point x="370.05333333333334" y="2014.56"/>
      <point x="400.56" y="1977.3066666666666"/>
      <point x="400.56" y="1925.6666666666667" type="curve" smooth="yes"/>
      <point x="400.56" y="1871.7733333333335"/>
      <point x="368.92" y="1835.88"/>
    </contour>
  </outline>
</glyph>
<glyph name="uni0306_gravecomb" format="2">
  <anchor x="0.0" y="1024.0" name="_top"/>
  <outline>
    <contour>
      <point x="31.73333333333333" y="1315.0" type="line"/>
      <point x="-136.33333333333334" y="1598.0" type="line"/>
      <point x="-283.06666666666666" y="1598.0" type="line"/>
      <point x="-283.06666666666666" y="1577.52" type="line"/>
      <point x="-33.81333333333333" y="1315.0" type="line"/>
    </contour>
    <contour>
      <point x="0.0" y="1188.9466666666667" type="curve" smooth="yes"/>
      <point x="-126.76" y="1188.9466666666667"/>
      <point x="-184.65333333333334" y="1250.1333333333334"/>
      <point x="-208.4" y="1342.2666666666667" type="curve"/>
      <point x="-277.91999999999996" y="1342.2666666666667" type="line"/>
      <point x="-242.42666666666665" y="1157.92"/>
      <point x="-159.9466666666667" y="1102.0133333333333"/>
      <point x="0.0" y="1102.0133333333333" type="curve" smooth="yes"/>
      <point x="159.9466666666667" y="1102.0133333333333"/>
      <point x="242.42666666666665" y="1157.92"/>
      <point x="277.91999999999996" y="1342.2666666666667" type="curve"/>
      <point x="208.4" y="1342.2666666666667" type="line"/>
      <point x="184.65333333333334" y="1250.1333333333334"/>
      <point x="126.76" y="1188.9466666666667"/>
    </contour>
  </outline>
</glyph>
<glyph name="uni0306_hookabovecomb" format="2">
  <anchor x="0.0" y="1024.0" name="_top"/>
  <outline>
    <contour>
      <point x="-16.613333333333337" y="1313.0" type="line"/>
      <point x="142.6" y="1355.4"/>
      <point x="196.70666666666665" y="1404.4"/>
      <point x="196.70666666666665" y="1496.88" type="curve" smooth="yes"/>
      <point x="196.70666666666665" y="1580.3600000000001"/>
      <point x="142.86666666666667" y="1640.4933333333333"/>
      <point x="-99.25333333333333" y="1651.0" type="curve"/>
      <point x="-112.50666666666666" y="1554.68" type="line"/>
      <point x="83.26666666666667" y="1549.8"/>
      <point x="115.02666666666666" y="1521.28"/>
      <point x="115.02666666666666" y="1473.3866666666665" type="curve" smooth="yes"/>
      <point x="115.02666666666666" y="1434.3733333333334"/>
      <point x="93.65333333333334" y="1404.48"/>
      <point x="-36.120000000000005" y="1368.4533333333334" type="curve"/>
    </contour>
    <contour>
      <point x="0.0" y="1188.9466666666667" type="curve" smooth="yes"/>
      <point x="-126.76" y="1188.9466666666667"/>
      <point x="-184.65333333333334" y="1250.1333333333334"/>
      <point x="-208.4" y="1342.2666666666667" type="curve"/>
      <point x="-277.91999999999996" y="1342.2666666666667" type="line"/>
      <point x="-242.42666666666665" y="1157.92"/>
      <point x="-159.9466666666667" y="1102.0133333333333"/>
      <point x="0.0" y="1102.0133333333333" type="curve" smooth="yes"/>
      <point x="159.9466666666667" y="1102.0133333333333"/>
      <point x="242.42666666666665" y="1157.92"/>
      <point x="277.91999999999996" y="1342.2666666666667" type="curve"/>
      <point x="208.4" y="1342.2666666666667" type="line"/>
      <point x="184.65333333333334" y="1250.1333333333334"/>
      <point x="126.76" y="1188.9466666666667"/>
    </contour>
  </outline>
</glyph>
<glyph name="uni030C.case" format="2">
  <anchor x="0.0" y="1414.0" name="_UCtop"/>
  <anchor x="0.0" y="1870.0" name="UCtop"/>
  <outline>
    <contour>
      <point x="19.22666666666667" y="1618.4133333333334" type="line"/>
      <point x="-217.0666666666667" y="1870.0" type="line"/>
      <point x="-318.6533333333333" y="1870.0" type="line"/>
      <point x="-58.65333333333333" y="1544.0" type="line"/>
      <point x="59.28" y="1544.0" type="line"/>
      <point x="318.6533333333333" y="1870.0" type="line"/>
      <point x="217.0666666666667" y="1870.0" type="line"/>
      <point x="-19.85333333333333" y="1618.4133333333334" type="line"/>
    </contour>
  </outline>
</glyph>
<glyph name="uni0311.case" format="2">
  <anchor x="0.0" y="1414.0" name="_UCtop"/>
  <anchor x="0.0" y="1870.0" name="UCtop"/>
  <outline>
    <contour>
      <point x="0.0" y="1778.0" type="curve" smooth="yes"/>
      <point x="131.26666666666668" y="1778.0"/>
      <point x="188.65333333333334" y="1726.2266666666667"/>
      <point x="226.66666666666666" y="1544.0" type="curve"/>
      <point x="300.44" y="1544.0" type="line"/>
      <point x="256.8" y="1804.8799999999999"/>
      <point x="177.57333333333332" y="1878.1333333333334"/>
      <point x="0.0" y="1878.1333333333334" type="curve" smooth="yes"/>
      <point x="-177.57333333333332" y="1878.1333333333334"/>
      <point x="-256.8" y="1804.8799999999999"/>
      <point x="-300.44" y="1544.0" type="curve"/>
      <point x="-226.66666666666666" y="1544.0" type="line"/>
      <point x="-188.65333333333334" y="1726.2266666666667"/>
      <point x="-131.26666666666668" y="1778.0"/>
    </contour>
  </outline>
</glyph>
<glyph name="uni20A9.1" format="2">
  <advance width="1300.0"/>
  <outline>
    <contour>
      <point x="642.28" y="1338.4266666666667" type="line"/>
      <point x="903.9866666666667" y="0.0" type="line"/>
      <point x="1026.4" y="0.0" type="line"/>
      <point x="1177.8533333333332" y="1330.5733333333335" type="line"/>
      <point x="1291.24" y="1348.0666666666668" type="line"/>
      <point x="1291.24" y="1414.0" type="line"/>
      <point x="970.7866666666666" y="1414.0" type="line"/>
      <point x="970.7866666666666" y="1348.0666666666668" type="line"/>
      <point x="1093.9466666666667" y="1330.4533333333334" type="line"/>
      <point x="959.7199999999999" y="66.97333333333333" type="line"/>
      <point x="1004.5600000000001" y="71.45333333333333" type="line"/>
      <point x="741.12" y="1414.0" type="line"/>
      <point x="626.1333333333333" y="1414.0" type="line"/>
      <point x="324.77333333333337" y="69.96" type="line"/>
      <point x="371.59999999999997" y="72.19999999999999" type="line"/>
      <point x="246.84" y="1330.5733333333335" type="line"/>
      <point x="374.88" y="1348.0666666666668" type="line"/>
      <point x="374.88" y="1414.0" type="line"/>
      <point x="5.386666666666667" y="1414.0" type="line"/>
      <point x="5.386666666666667" y="1348.0666666666668" type="line"/>
      <point x="134.53333333333333" y="1328.96" type="line"/>
      <point x="273.1466666666667" y="0.0" type="line"/>
      <point x="392.06666666666666" y="0.0" type="line"/>
      <point x="692.96" y="1338.4266666666667" type="line"/>
    </contour>
    <contour>
      <point x="1054.72" y="525.5733333333334" type="line"/>
      <point x="1288.5866666666666" y="525.5733333333334" type="line"/>
      <point x="1288.5866666666666" y="611.36" type="line"/>
      <point x="1054.72" y="611.36" type="line"/>
    </contour>
    <contour>
      <point x="280.8666666666666" y="611.36" type="line"/>
      <point x="10.906666666666666" y="611.36" type="line"/>
      <point x="10.906666666666666" y="525.5733333333334" type="line"/>
      <point x="280.8666666666666" y="525.5733333333334" type="line"/>
    </contour>
    <contour>
      <point x="1072.2666666666667" y="846.3199999999999" type="line"/>
      <point x="1288.5866666666666" y="846.3199999999999" type="line"/>
      <point x="1288.5866666666666" y="932.1066666666667" type="line"/>
      <point x="1072.2666666666667" y="932.1066666666667" type="line"/>
    </contour>
    <contour>
      <point x="260.81333333333333" y="932.1066666666667" type="line"/>
      <point x="10.906666666666666" y="932.1066666666667" type="line"/>
      <point x="10.906666666666666" y="846.3199999999999" type="line"/>
      <point x="260.81333333333333" y="846.3199999999999" type="line"/>
    </contour>
  </outline>
</glyph>
<glyph name="uni20AD.lf" format="2">
  <advance width="1487.8"/>
  <outline>
    <contour>
      <point x="620.3066666666666" y="723.1066666666667" type="line"/>
      <point x="1135.6000000000001" y="0.0" type="line"/>
      <point x="1423.0533333333333" y="0.0" type="line"/>
      <point x="1423.0533333333333" y="68.91999999999999" type="line"/>
      <point x="1227.1333333333334" y="90.14666666666668" type="line"/>
      <point x="724.6266666666667" y="777.7733333333333" type="line"/>
      <point x="745.2666666666667" y="691.6533333333333" type="line"/>
      <point x="1151.8666666666666" y="1324.9733333333334" type="line"/>
      <point x="1333.9066666666668" y="1345.0800000000002" type="line"/>
      <point x="1333.9066666666668" y="1414.0" type="line"/>
      <point x="873.2933333333333" y="1414.0" type="line"/>
      <point x="873.2933333333333" y="1345.0800000000002" type="line"/>
      <point x="1053.0933333333332" y="1327.5866666666666" type="line"/>
      <point x="673.1066666666667" y="723.1066666666667" type="line"/>
    </contour>
    <contour>
      <point x="1152.2933333333335" y="758.44" type="line"/>
      <point x="140.26666666666665" y="758.44" type="line"/>
      <point x="140.26666666666665" y="672.6533333333333" type="line"/>
      <point x="1152.2933333333335" y="672.6533333333333" type="line"/>
    </contour>
    <contour>
      <point x="491.4533333333333" y="1317.1333333333332" type="line"/>
      <point x="711.6266666666667" y="1345.0800000000002" type="line"/>
      <point x="711.6266666666667" y="1414.0" type="line"/>
      <point x="143.25333333333333" y="1414.0" type="line"/>
      <point x="143.25333333333333" y="1345.0800000000002" type="line"/>
      <point x="364.92" y="1315.6399999999999" type="line"/>
      <point x="364.92" y="96.86666666666666" type="line"/>
      <point x="143.25333333333333" y="68.91999999999999" type="line"/>
      <point x="143.25333333333333" y="0.0" type="line"/>
      <point x="711.6266666666667" y="0.0" type="line"/>
      <point x="711.6266666666667" y="68.91999999999999" type="line"/>
      <point x="491.4533333333333" y="96.86666666666666" type="line"/>
    </contour>
  </outline>
</glyph>
<glyph name="uni20B1.lf.1" format="2">
  <advance width="1474.3733333333334"/>
  <outline>
    <contour>
      <point x="380.74666666666667" y="1317.1333333333332" type="line"/>
      <point x="380.74666666666667" y="96.86666666666666" type="line"/>
      <point x="157.88" y="68.91999999999999" type="line"/>
      <point x="157.88" y="0.0" type="line"/>
      <point x="728.6533333333333" y="0.0" type="line"/>
      <point x="728.6533333333333" y="68.91999999999999" type="line"/>
      <point x="507.28" y="96.86666666666666" type="line"/>
      <point x="507.28" y="1414.0" type="line"/>
      <point x="157.88" y="1414.0" type="line"/>
      <point x="157.88" y="1345.0800000000002" type="line"/>
    </contour>
    <contour>
      <point x="442.38666666666666" y="1414.0" type="line"/>
      <point x="447.32" y="1320.0" type="line"/>
      <point x="595.7066666666666" y="1320.0" type="line" smooth="yes"/>
      <point x="975.6666666666666" y="1320.0"/>
      <point x="1051.3200000000002" y="1198.3466666666666"/>
      <point x="1051.3200000000002" y="959.7866666666666" type="curve" smooth="yes"/>
      <point x="1051.3200000000002" y="690.5866666666667"/>
      <point x="948.4" y="577.6800000000001"/>
      <point x="710.92" y="577.6800000000001" type="curve" smooth="yes"/>
      <point x="457.82666666666665" y="577.6800000000001" type="line"/>
      <point x="449.90666666666664" y="483.68" type="line"/>
      <point x="710.32" y="483.68" type="line" smooth="yes"/>
      <point x="1045.7333333333333" y="483.68"/>
      <point x="1177.9866666666667" y="641.92"/>
      <point x="1177.9866666666667" y="953.5333333333333" type="curve" smooth="yes"/>
      <point x="1177.9866666666667" y="1257.76"/>
      <point x="1062.7466666666667" y="1414.0"/>
      <point x="626.1600000000001" y="1414.0" type="curve" smooth="yes"/>
    </contour>
    <contour>
      <point x="450.0933333333333" y="1150.2266666666667" type="line"/>
      <point x="157.88" y="1150.2266666666667" type="line"/>
      <point x="157.88" y="1064.44" type="line"/>
      <point x="450.0933333333333" y="1064.44" type="line"/>
    </contour>
    <contour>
      <point x="450.0933333333333" y="829.48" type="line"/>
      <point x="157.88" y="829.48" type="line"/>
      <point x="157.88" y="743.6933333333334" type="line"/>
      <point x="450.0933333333333" y="743.6933333333334" type="line"/>
    </contour>
    <contour>
      <point x="1102.1999999999998" y="1064.44" type="line"/>
      <point x="1357.8666666666668" y="1064.44" type="line"/>
      <point x="1357.8666666666668" y="1150.2266666666667" type="line"/>
      <point x="1102.1999999999998" y="1150.2266666666667" type="line"/>
    </contour>
    <contour>
      <point x="1102.2" y="743.6933333333334" type="line"/>
      <point x="1357.8666666666668" y="743.6933333333334" type="line"/>
      <point x="1357.8666666666668" y="829.48" type="line"/>
      <point x="1102.2" y="829.48" type="line"/>
    </contour>
  </outline>
</glyph>
<glyph name="uni20B9.lf" format="2">
  <advance width="1281.3066666666666"/>
  <outline>
    <contour>
      <point x="1155.5466666666666" y="1088.4" type="line"/>
      <point x="129.01333333333332" y="1088.4" type="line"/>
      <point x="129.01333333333332" y="1002.6133333333332" type="line"/>
      <point x="1155.5466666666666" y="1002.6133333333332" type="line"/>
    </contour>
    <contour>
      <point x="566.9466666666666" y="654.5866666666666" type="line" smooth="yes"/>
      <point x="696.5733333333333" y="654.5866666666666"/>
      <point x="728.9466666666666" y="621.7066666666666"/>
      <point x="763.5866666666667" y="483.06666666666666" type="curve" smooth="yes"/>
      <point x="841.2533333333333" y="173.61333333333332" type="line" smooth="yes"/>
      <point x="883.3866666666667" y="4.253333333333334"/>
      <point x="922.7066666666667" y="-16.73333333333333"/>
      <point x="1149.2" y="0.0" type="curve"/>
      <point x="1149.2" y="80.39999999999999" type="line"/>
      <point x="1010.8" y="71.51999999999998"/>
      <point x="993.0533333333333" y="89.89333333333333"/>
      <point x="964.1733333333333" y="200.52" type="curve" smooth="yes"/>
      <point x="883.12" y="507.66666666666663" type="line" smooth="yes"/>
      <point x="845.24" y="652.5333333333333"/>
      <point x="804.8933333333333" y="706.4"/>
      <point x="629.4266666666666" y="711.52" type="curve"/>
      <point x="629.4266666666666" y="701.1466666666666" type="line"/>
      <point x="843.5466666666666" y="738.7866666666666"/>
      <point x="926.0133333333333" y="874.4133333333333"/>
      <point x="926.0133333333333" y="1047.2933333333335" type="curve" smooth="yes"/>
      <point x="926.0133333333333" y="1251.68"/>
      <point x="813.12" y="1366.96"/>
      <point x="437.58666666666664" y="1366.96" type="curve" smooth="yes"/>
      <point x="310.81333333333333" y="1366.96" type="line"/>
      <point x="310.81333333333333" y="1414.0" type="line"/>
      <point x="145.93333333333334" y="1414.0" type="line"/>
      <point x="145.93333333333334" y="1320.0" type="line"/>
      <point x="412.73333333333335" y="1320.0" type="line" smooth="yes"/>
      <point x="737.2933333333333" y="1320.0"/>
      <point x="805.8266666666666" y="1224.84"/>
      <point x="805.8266666666666" y="1040.3066666666666" type="curve" smooth="yes"/>
      <point x="805.8266666666666" y="836.24"/>
      <point x="699.4" y="748.5866666666667"/>
      <point x="504.32000000000005" y="748.5866666666667" type="curve" smooth="yes"/>
      <point x="129.01333333333332" y="748.5866666666667" type="line"/>
      <point x="129.01333333333332" y="654.5866666666666" type="line"/>
    </contour>
    <contour>
      <point x="1155.5466666666666" y="1414.0" type="line"/>
      <point x="129.01333333333332" y="1414.0" type="line"/>
      <point x="129.01333333333332" y="1328.2133333333334" type="line"/>
      <point x="1155.5466666666666" y="1328.2133333333334" type="line"/>
    </contour>
  </outline>
</glyph>
<glyph name="uni20BA.lf" format="2">
  <advance width="1263.1466666666665"/>
  <outline>
    <contour>
      <point x="1117.5333333333333" y="-74.61333333333334" type="line"/>
      <point x="1194.0133333333333" y="401.28" type="line"/>
      <point x="1112.3866666666665" y="401.28" type="line"/>
      <point x="996.84" y="39.38666666666667" type="line"/>
      <point x="1089.36" y="91.49333333333333" type="line"/>
      <point x="409.64" y="91.49333333333333" type="line"/>
      <point x="409.64" y="0.0" type="line"/>
      <point x="1014.04" y="0.0" type="line"/>
      <point x="1041.6000000000001" y="-74.61333333333334" type="line"/>
    </contour>
    <contour>
      <point x="152.50666666666666" y="341.5733333333333" type="line"/>
      <point x="404.3333333333333" y="476.6666666666667" type="line"/>
      <point x="455.68" y="490.17333333333335" type="line"/>
      <point x="890.52" y="721.7733333333333" type="line"/>
      <point x="890.52" y="809.56" type="line"/>
      <point x="457.92" y="579.0799999999999" type="line"/>
      <point x="406.2" y="565.5733333333334" type="line"/>
      <point x="152.50666666666666" y="429.35999999999996" type="line"/>
    </contour>
    <contour>
      <point x="152.50666666666666" y="666.56" type="line"/>
      <point x="407.6933333333333" y="803.1466666666666" type="line"/>
      <point x="459.04" y="816.6533333333333" type="line"/>
      <point x="890.52" y="1047.1333333333334" type="line"/>
      <point x="890.52" y="1134.9199999999998" type="line"/>
      <point x="460.53333333333336" y="905.56" type="line"/>
      <point x="409.56" y="892.0533333333334" type="line"/>
      <point x="152.50666666666666" y="754.3466666666667" type="line"/>
    </contour>
    <contour>
      <point x="152.13333333333333" y="0.0" type="line"/>
      <point x="501.5333333333333" y="0.0" type="line"/>
      <point x="501.5333333333333" y="1317.1333333333332" type="line"/>
      <point x="722.9066666666666" y="1345.0800000000002" type="line"/>
      <point x="722.9066666666666" y="1414.0" type="line"/>
      <point x="152.13333333333333" y="1414.0" type="line"/>
      <point x="152.13333333333333" y="1345.0800000000002" type="line"/>
      <point x="375.0" y="1317.1333333333332" type="line"/>
      <point x="375.0" y="96.86666666666666" type="line"/>
      <point x="152.13333333333333" y="68.91999999999999" type="line"/>
    </contour>
  </outline>
</glyph>
